<?xml version="1.0" encoding="utf-8" standalone="no"?>
<!DOCTYPE svg PUBLIC "-//W3C//DTD SVG 1.1//EN"
  "http://www.w3.org/Graphics/SVG/1.1/DTD/svg11.dtd">
<!-- Created with matplotlib (http://matplotlib.org/) -->
<svg height="913pt" version="1.1" viewBox="0 0 1728 913" width="1728pt" xmlns="http://www.w3.org/2000/svg" xmlns:xlink="http://www.w3.org/1999/xlink">
 <defs>
  <style type="text/css">
*{stroke-linecap:butt;stroke-linejoin:round;stroke-miterlimit:100000;}
  </style>
 </defs>
 <g id="figure_1">
  <g id="patch_1">
   <path d="M 0 913.5 
L 1728 913.5 
L 1728 0 
L 0 0 
z
" style="fill:#ffffff;"/>
  </g>
  <g id="axes_1">
   <g id="patch_2">
    <path d="M 216 822.15 
L 1555.2 822.15 
L 1555.2 91.35 
L 216 91.35 
z
" style="fill:#ffffff;"/>
   </g>
   <g id="PolyCollection_1">
    <defs>
     <path d="M 1555.2 -332.514248 
L 1555.2 -91.35 
L 1524.781936 -91.35 
L 1486.79825 -91.35 
L 1449.049423 -91.35 
L 1413.756026 -91.35 
L 1384.210099 -91.35 
L 1353.844221 -91.35 
L 1310.786488 -91.35 
L 1271.169873 -91.35 
L 1234.55451 -91.35 
L 1200.59045 -91.35 
L 1168.959524 -91.35 
L 1139.419497 -91.35 
L 1102.988631 -91.35 
L 1069.691525 -91.35 
L 1039.258555 -91.35 
L 1004.871744 -91.35 
L 974.141643 -91.35 
L 941.54777 -91.35 
L 907.445484 -91.35 
L 870.476348 -91.35 
L 836.686585 -91.35 
L 805.802713 -91.35 
L 770.905437 -91.35 
L 739.718561 -91.35 
L 710.248333 -91.35 
L 678.105604 -91.35 
L 648.965293 -91.35 
L 615.650626 -91.35 
L 586.37319 -91.35 
L 557.129989 -91.35 
L 518.976397 -91.35 
L 482.001158 -91.35 
L 447.432178 -91.35 
L 415.11824 -91.35 
L 384.905733 -91.35 
L 347.671867 -91.35 
L 313.645725 -91.35 
L 282.549054 -91.35 
L 247.406122 -91.35 
L 216 -91.35 
L 216 -91.35 
L 216 -91.35 
L 247.406122 -91.35 
L 282.549054 -91.35 
L 313.645725 -91.35 
L 347.671867 -91.35 
L 384.905733 -91.35 
L 415.11824 -91.35 
L 447.432178 -91.35 
L 482.001158 -91.35 
L 518.976397 -91.35 
L 557.129989 -91.35 
L 586.37319 -91.35 
L 615.650626 -91.35 
L 648.965293 -91.35 
L 678.105604 -91.35 
L 710.248333 -91.35 
L 739.718561 -91.35 
L 770.905437 -91.35 
L 805.802713 -108.461244 
L 836.686585 -114.769063 
L 870.476348 -121.670439 
L 907.445484 -129.221364 
L 941.54777 -139.637881 
L 974.141643 -153.762966 
L 1004.871744 -167.080392 
L 1039.258555 -181.982527 
L 1069.691525 -195.171208 
L 1102.988631 -209.60112 
L 1139.419497 -225.389093 
L 1168.959524 -238.189833 
L 1200.59045 -251.897447 
L 1234.55451 -266.433904 
L 1271.169873 -281.770911 
L 1310.786488 -297.896772 
L 1353.844221 -314.752112 
L 1384.210099 -326.725604 
L 1413.756026 -336.867347 
L 1449.049423 -332.5142 
L 1486.79825 -332.514229 
L 1524.781936 -334.651157 
L 1555.2 -332.514248 
z
" id="m4479fc9aa0" style="stroke:#000000;"/>
    </defs>
    <g clip-path="url(#p766b7bdba0)">
     <use style="fill:#0000ff;stroke:#000000;" x="0.0" xlink:href="#m4479fc9aa0" y="913.5"/>
    </g>
   </g>
   <g id="PolyCollection_2">
    <defs>
     <path d="M 1555.2 -500.598425 
L 1555.2 -332.514248 
L 1524.781936 -334.651157 
L 1486.79825 -332.514229 
L 1449.049423 -332.5142 
L 1413.756026 -336.867347 
L 1384.210099 -326.725604 
L 1353.844221 -314.752112 
L 1310.786488 -297.896772 
L 1271.169873 -281.770911 
L 1234.55451 -266.433904 
L 1200.59045 -251.897447 
L 1168.959524 -238.189833 
L 1139.419497 -225.389093 
L 1102.988631 -209.60112 
L 1069.691525 -195.171208 
L 1039.258555 -181.982527 
L 1004.871744 -167.080392 
L 974.141643 -153.762966 
L 941.54777 -139.637881 
L 907.445484 -129.221364 
L 870.476348 -121.670439 
L 836.686585 -114.769063 
L 805.802713 -108.461244 
L 770.905437 -91.35 
L 739.718561 -91.35 
L 710.248333 -91.35 
L 678.105604 -91.35 
L 648.965293 -91.35 
L 615.650626 -91.35 
L 586.37319 -91.35 
L 557.129989 -91.35 
L 518.976397 -91.35 
L 482.001158 -91.35 
L 447.432178 -91.35 
L 415.11824 -91.35 
L 384.905733 -91.35 
L 347.671867 -91.35 
L 313.645725 -91.35 
L 282.549054 -91.35 
L 247.406122 -91.35 
L 216 -91.35 
L 216 -259.460697 
L 216 -259.460697 
L 247.406122 -259.577942 
L 282.549054 -259.709376 
L 313.645725 -259.826672 
L 347.671867 -259.954534 
L 384.905733 -260.094144 
L 415.11824 -262.480892 
L 447.432178 -262.059599 
L 482.001158 -261.611215 
L 518.976397 -261.134368 
L 557.129989 -260.644485 
L 586.37319 -262.436378 
L 615.650626 -259.434342 
L 648.965293 -259.434325 
L 678.105604 -259.434056 
L 710.248333 -259.43588 
L 739.718561 -260.269981 
L 770.905437 -261.762387 
L 805.802713 -276.54535 
L 836.686585 -282.85313 
L 870.476348 -289.75455 
L 907.445484 -297.305489 
L 941.54777 -307.722023 
L 974.141643 -321.847057 
L 1004.871744 -335.164475 
L 1039.258555 -350.066603 
L 1069.691525 -363.255282 
L 1102.988631 -377.685197 
L 1139.419497 -393.473168 
L 1168.959524 -406.279379 
L 1200.59045 -419.983307 
L 1234.55451 -434.591583 
L 1271.169873 -450.150249 
L 1310.786488 -466.737341 
L 1353.844221 -484.446098 
L 1384.210099 -497.033712 
L 1413.756026 -507.99202 
L 1449.049423 -500.598351 
L 1486.79825 -500.598393 
L 1524.781936 -504.224757 
L 1555.2 -500.598425 
z
" id="m1b6502441d" style="stroke:#000000;"/>
    </defs>
    <g clip-path="url(#p766b7bdba0)">
     <use style="fill:#008000;stroke:#000000;" x="0.0" xlink:href="#m1b6502441d" y="913.5"/>
    </g>
   </g>
   <g id="PolyCollection_3">
    <defs>
     <path d="M 1555.2 -500.598425 
L 1555.2 -500.598425 
L 1524.781936 -504.224757 
L 1486.79825 -500.598393 
L 1449.049423 -500.598351 
L 1413.756026 -507.99202 
L 1384.210099 -497.033712 
L 1353.844221 -484.446098 
L 1310.786488 -466.737341 
L 1271.169873 -450.150249 
L 1234.55451 -434.591583 
L 1200.59045 -419.983307 
L 1168.959524 -406.279379 
L 1139.419497 -393.473168 
L 1102.988631 -377.685197 
L 1069.691525 -363.255282 
L 1039.258555 -350.066603 
L 1004.871744 -335.164475 
L 974.141643 -321.847057 
L 941.54777 -307.722023 
L 907.445484 -297.305489 
L 870.476348 -289.75455 
L 836.686585 -282.85313 
L 805.802713 -276.54535 
L 770.905437 -261.762387 
L 739.718561 -260.269981 
L 710.248333 -259.43588 
L 678.105604 -259.434056 
L 648.965293 -259.434325 
L 615.650626 -259.434342 
L 586.37319 -262.436378 
L 557.129989 -260.644485 
L 518.976397 -261.134368 
L 482.001158 -261.611215 
L 447.432178 -262.059599 
L 415.11824 -262.480892 
L 384.905733 -260.094144 
L 347.671867 -259.954534 
L 313.645725 -259.826672 
L 282.549054 -259.709376 
L 247.406122 -259.577942 
L 216 -259.460697 
L 216 -286.694618 
L 216 -286.694618 
L 247.406122 -288.553945 
L 282.549054 -290.637598 
L 313.645725 -292.483492 
L 347.671867 -294.506473 
L 384.905733 -296.724563 
L 415.11824 -301.316939 
L 447.432178 -302.599106 
L 482.001158 -303.963745 
L 518.976397 -305.41539 
L 557.129989 -306.906016 
L 586.37319 -314.505911 
L 615.650626 -310.589655 
L 648.965293 -310.5897 
L 678.105604 -310.589957 
L 710.248333 -310.591504 
L 739.718561 -311.679131 
L 770.905437 -313.626224 
L 805.802713 -327.701105 
L 836.686585 -334.008962 
L 870.476348 -340.91028 
L 907.445484 -348.461193 
L 941.54777 -358.877755 
L 974.141643 -373.002797 
L 1004.871744 -386.320225 
L 1039.258555 -401.222365 
L 1069.691525 -414.411041 
L 1102.988631 -428.840939 
L 1139.419497 -444.628908 
L 1168.959524 -457.415606 
L 1200.59045 -471.132565 
L 1234.55451 -485.450201 
L 1271.169873 -500.112697 
L 1310.786488 -514.83429 
L 1353.844221 -529.092245 
L 1384.210099 -539.196883 
L 1413.756026 -546.853301 
L 1449.049423 -529.503559 
L 1486.79825 -519.58587 
L 1524.781936 -504.224757 
L 1555.2 -500.598425 
z
" id="mc5ca29576b" style="stroke:#000000;"/>
    </defs>
    <g clip-path="url(#p766b7bdba0)">
     <use style="fill:#ff0000;stroke:#000000;" x="0.0" xlink:href="#mc5ca29576b" y="913.5"/>
    </g>
   </g>
   <g id="PolyCollection_4">
    <defs>
     <path d="M 1555.2 -537.138465 
L 1555.2 -500.598425 
L 1524.781936 -504.224757 
L 1486.79825 -519.58587 
L 1449.049423 -529.503559 
L 1413.756026 -546.853301 
L 1384.210099 -539.196883 
L 1353.844221 -529.092245 
L 1310.786488 -514.83429 
L 1271.169873 -500.112697 
L 1234.55451 -485.450201 
L 1200.59045 -471.132565 
L 1168.959524 -457.415606 
L 1139.419497 -444.628908 
L 1102.988631 -428.840939 
L 1069.691525 -414.411041 
L 1039.258555 -401.222365 
L 1004.871744 -386.320225 
L 974.141643 -373.002797 
L 941.54777 -358.877755 
L 907.445484 -348.461193 
L 870.476348 -340.91028 
L 836.686585 -334.008962 
L 805.802713 -327.701105 
L 770.905437 -313.626224 
L 739.718561 -311.679131 
L 710.248333 -310.591504 
L 678.105604 -310.589957 
L 648.965293 -310.5897 
L 615.650626 -310.589655 
L 586.37319 -314.505911 
L 557.129989 -306.906016 
L 518.976397 -305.41539 
L 482.001158 -303.963745 
L 447.432178 -302.599106 
L 415.11824 -301.316939 
L 384.905733 -296.724563 
L 347.671867 -294.506473 
L 313.645725 -292.483492 
L 282.549054 -290.637598 
L 247.406122 -288.553945 
L 216 -286.694618 
L 216 -626.416782 
L 216 -626.416782 
L 247.406122 -605.845792 
L 282.549054 -582.793126 
L 313.645725 -562.363943 
L 347.671867 -539.976526 
L 384.905733 -515.443114 
L 415.11824 -500.949284 
L 447.432178 -478.073391 
L 482.001158 -453.725493 
L 518.976397 -427.822523 
L 557.129989 -395.860817 
L 586.37319 -388.891275 
L 615.650626 -357.684998 
L 648.965293 -347.129808 
L 678.105604 -347.129974 
L 710.248333 -347.131927 
L 739.718561 -348.400889 
L 770.905437 -350.672413 
L 805.802713 -364.241135 
L 836.686585 -370.548981 
L 870.476348 -377.45031 
L 907.445484 -385.001226 
L 941.54777 -395.41779 
L 974.141643 -409.54282 
L 1004.871744 -422.860246 
L 1039.258555 -437.762383 
L 1069.691525 -450.951059 
L 1102.988631 -465.380957 
L 1139.419497 -481.168925 
L 1168.959524 -493.956902 
L 1200.59045 -507.673004 
L 1234.55451 -522.006238 
L 1271.169873 -536.716925 
L 1310.786488 -551.538765 
L 1353.844221 -565.982245 
L 1384.210099 -576.220398 
L 1413.756026 -584.054324 
L 1449.049423 -566.043594 
L 1486.79825 -556.125908 
L 1524.781936 -541.088595 
L 1555.2 -537.138465 
z
" id="m24fb4de4e1" style="stroke:#000000;"/>
    </defs>
    <g clip-path="url(#p766b7bdba0)">
     <use style="fill:#00bfbf;stroke:#000000;" x="0.0" xlink:href="#m24fb4de4e1" y="913.5"/>
    </g>
   </g>
   <g id="PolyCollection_5">
    <defs>
     <path d="M 1555.2 -537.138465 
L 1555.2 -537.138465 
L 1524.781936 -541.088595 
L 1486.79825 -556.125908 
L 1449.049423 -566.043594 
L 1413.756026 -584.054324 
L 1384.210099 -576.220398 
L 1353.844221 -565.982245 
L 1310.786488 -551.538765 
L 1271.169873 -536.716925 
L 1234.55451 -522.006238 
L 1200.59045 -507.673004 
L 1168.959524 -493.956902 
L 1139.419497 -481.168925 
L 1102.988631 -465.380957 
L 1069.691525 -450.951059 
L 1039.258555 -437.762383 
L 1004.871744 -422.860246 
L 974.141643 -409.54282 
L 941.54777 -395.41779 
L 907.445484 -385.001226 
L 870.476348 -377.45031 
L 836.686585 -370.548981 
L 805.802713 -364.241135 
L 770.905437 -350.672413 
L 739.718561 -348.400889 
L 710.248333 -347.131927 
L 678.105604 -347.129974 
L 648.965293 -347.129808 
L 615.650626 -357.684998 
L 586.37319 -388.891275 
L 557.129989 -395.860817 
L 518.976397 -427.822523 
L 482.001158 -453.725493 
L 447.432178 -478.073391 
L 415.11824 -500.949284 
L 384.905733 -515.443114 
L 347.671867 -539.976526 
L 313.645725 -562.363943 
L 282.549054 -582.793126 
L 247.406122 -605.845792 
L 216 -626.416782 
L 216 -798.335672 
L 216 -798.335672 
L 247.406122 -800.55198 
L 282.549054 -803.035654 
L 313.645725 -805.237097 
L 347.671867 -807.649025 
L 384.905733 -810.292297 
L 415.11824 -822.15 
L 447.432178 -822.15 
L 482.001158 -822.15 
L 518.976397 -822.15 
L 557.129989 -822.15 
L 586.37319 -822.15 
L 615.650626 -779.897776 
L 648.965293 -754.653699 
L 678.105604 -710.77025 
L 710.248333 -652.588354 
L 739.718561 -609.223419 
L 770.905437 -569.862775 
L 805.802713 -531.943826 
L 836.686585 -495.334613 
L 870.476348 -455.280088 
L 907.445484 -411.458562 
L 941.54777 -395.41779 
L 974.141643 -409.54282 
L 1004.871744 -422.860246 
L 1039.258555 -437.762383 
L 1069.691525 -450.951059 
L 1102.988631 -465.380957 
L 1139.419497 -481.168925 
L 1168.959524 -493.956902 
L 1200.59045 -507.673004 
L 1234.55451 -522.006238 
L 1271.169873 -536.716925 
L 1310.786488 -551.538765 
L 1353.844221 -565.982245 
L 1384.210099 -576.220398 
L 1413.756026 -584.054324 
L 1449.049423 -566.043594 
L 1486.79825 -556.125908 
L 1524.781936 -541.088595 
L 1555.2 -537.138465 
z
" id="mf2cb7ec7b8" style="stroke:#000000;"/>
    </defs>
    <g clip-path="url(#p766b7bdba0)">
     <use style="fill:#bf00bf;stroke:#000000;" x="0.0" xlink:href="#mf2cb7ec7b8" y="913.5"/>
    </g>
   </g>
   <g id="PolyCollection_6">
    <defs>
     <path d="M 1555.2 -537.138465 
L 1555.2 -537.138465 
L 1524.781936 -541.088595 
L 1486.79825 -556.125908 
L 1449.049423 -566.043594 
L 1413.756026 -584.054324 
L 1384.210099 -576.220398 
L 1353.844221 -565.982245 
L 1310.786488 -551.538765 
L 1271.169873 -536.716925 
L 1234.55451 -522.006238 
L 1200.59045 -507.673004 
L 1168.959524 -493.956902 
L 1139.419497 -481.168925 
L 1102.988631 -465.380957 
L 1069.691525 -450.951059 
L 1039.258555 -437.762383 
L 1004.871744 -422.860246 
L 974.141643 -409.54282 
L 941.54777 -395.41779 
L 907.445484 -411.458562 
L 870.476348 -455.280088 
L 836.686585 -495.334613 
L 805.802713 -531.943826 
L 770.905437 -569.862775 
L 739.718561 -609.223419 
L 710.248333 -652.588354 
L 678.105604 -710.77025 
L 648.965293 -754.653699 
L 615.650626 -779.897776 
L 586.37319 -822.15 
L 557.129989 -822.15 
L 518.976397 -822.15 
L 482.001158 -822.15 
L 447.432178 -822.15 
L 415.11824 -822.15 
L 384.905733 -810.292297 
L 347.671867 -807.649025 
L 313.645725 -805.237097 
L 282.549054 -803.035654 
L 247.406122 -800.55198 
L 216 -798.335672 
L 216 -822.15 
L 216 -822.15 
L 247.406122 -822.15 
L 282.549054 -822.15 
L 313.645725 -822.15 
L 347.671867 -822.15 
L 384.905733 -822.15 
L 415.11824 -822.15 
L 447.432178 -822.15 
L 482.001158 -822.15 
L 518.976397 -822.15 
L 557.129989 -822.15 
L 586.37319 -822.15 
L 615.650626 -779.897776 
L 648.965293 -754.653699 
L 678.105604 -710.77025 
L 710.248333 -652.588354 
L 739.718561 -609.223419 
L 770.905437 -569.862775 
L 805.802713 -531.943826 
L 836.686585 -495.334613 
L 870.476348 -455.280088 
L 907.445484 -411.458562 
L 941.54777 -395.41779 
L 974.141643 -409.54282 
L 1004.871744 -422.860246 
L 1039.258555 -437.762383 
L 1069.691525 -450.951059 
L 1102.988631 -465.380957 
L 1139.419497 -481.168925 
L 1168.959524 -493.956902 
L 1200.59045 -507.673004 
L 1234.55451 -522.006238 
L 1271.169873 -536.716925 
L 1310.786488 -551.538765 
L 1353.844221 -565.982245 
L 1384.210099 -576.220398 
L 1413.756026 -584.054324 
L 1449.049423 -566.043594 
L 1486.79825 -556.125908 
L 1524.781936 -541.088595 
L 1555.2 -537.138465 
z
" id="mb715edb197" style="stroke:#000000;"/>
    </defs>
    <g clip-path="url(#p766b7bdba0)">
     <use style="fill:#bfbf00;stroke:#000000;" x="0.0" xlink:href="#mb715edb197" y="913.5"/>
    </g>
   </g>
   <g id="PolyCollection_7">
    <defs>
     <path d="M 1555.2 -588.293784 
L 1555.2 -537.138465 
L 1524.781936 -541.088595 
L 1486.79825 -556.125908 
L 1449.049423 -566.043594 
L 1413.756026 -584.054324 
L 1384.210099 -576.220398 
L 1353.844221 -565.982245 
L 1310.786488 -551.538765 
L 1271.169873 -536.716925 
L 1234.55451 -522.006238 
L 1200.59045 -507.673004 
L 1168.959524 -493.956902 
L 1139.419497 -481.168925 
L 1102.988631 -465.380957 
L 1069.691525 -450.951059 
L 1039.258555 -437.762383 
L 1004.871744 -422.860246 
L 974.141643 -409.54282 
L 941.54777 -395.41779 
L 907.445484 -411.458562 
L 870.476348 -455.280088 
L 836.686585 -495.334613 
L 805.802713 -531.943826 
L 770.905437 -569.862775 
L 739.718561 -609.223419 
L 710.248333 -652.588354 
L 678.105604 -710.77025 
L 648.965293 -754.653699 
L 615.650626 -779.897776 
L 586.37319 -822.15 
L 557.129989 -822.15 
L 518.976397 -822.15 
L 482.001158 -822.15 
L 447.432178 -822.15 
L 415.11824 -822.15 
L 384.905733 -822.15 
L 347.671867 -822.15 
L 313.645725 -822.15 
L 282.549054 -822.15 
L 247.406122 -822.15 
L 216 -822.15 
L 216 -822.15 
L 216 -822.15 
L 247.406122 -822.15 
L 282.549054 -822.15 
L 313.645725 -822.15 
L 347.671867 -822.15 
L 384.905733 -822.15 
L 415.11824 -822.15 
L 447.432178 -822.15 
L 482.001158 -822.15 
L 518.976397 -822.15 
L 557.129989 -822.15 
L 586.37319 -822.15 
L 615.650626 -779.897776 
L 648.965293 -754.653699 
L 678.105604 -710.77025 
L 710.248333 -652.588354 
L 739.718561 -609.223419 
L 770.905437 -569.862775 
L 805.802713 -531.943826 
L 836.686585 -495.334613 
L 870.476348 -455.280088 
L 907.445484 -411.458562 
L 941.54777 -395.41779 
L 974.141643 -409.54282 
L 1004.871744 -422.860246 
L 1039.258555 -437.762383 
L 1069.691525 -450.951059 
L 1102.988631 -465.380957 
L 1139.419497 -481.168925 
L 1168.959524 -493.956902 
L 1200.59045 -507.673004 
L 1234.55451 -522.006238 
L 1271.169873 -536.716925 
L 1310.786488 -551.538765 
L 1353.844221 -565.982245 
L 1384.210099 -576.220398 
L 1413.756026 -584.054324 
L 1449.049423 -588.293842 
L 1486.79825 -588.293813 
L 1524.781936 -586.221736 
L 1555.2 -588.293784 
z
" id="ma87877eeea" style="stroke:#000000;"/>
    </defs>
    <g clip-path="url(#p766b7bdba0)">
     <use style="stroke:#000000;" x="0.0" xlink:href="#ma87877eeea" y="913.5"/>
    </g>
   </g>
   <g id="PolyCollection_8">
    <defs>
     <path d="M 1555.2 -588.293784 
L 1555.2 -588.293784 
L 1524.781936 -586.221736 
L 1486.79825 -588.293813 
L 1449.049423 -588.293842 
L 1413.756026 -584.054324 
L 1384.210099 -576.220398 
L 1353.844221 -565.982245 
L 1310.786488 -551.538765 
L 1271.169873 -536.716925 
L 1234.55451 -522.006238 
L 1200.59045 -507.673004 
L 1168.959524 -493.956902 
L 1139.419497 -481.168925 
L 1102.988631 -465.380957 
L 1069.691525 -450.951059 
L 1039.258555 -437.762383 
L 1004.871744 -422.860246 
L 974.141643 -409.54282 
L 941.54777 -395.41779 
L 907.445484 -411.458562 
L 870.476348 -455.280088 
L 836.686585 -495.334613 
L 805.802713 -531.943826 
L 770.905437 -569.862775 
L 739.718561 -609.223419 
L 710.248333 -652.588354 
L 678.105604 -710.77025 
L 648.965293 -754.653699 
L 615.650626 -779.897776 
L 586.37319 -822.15 
L 557.129989 -822.15 
L 518.976397 -822.15 
L 482.001158 -822.15 
L 447.432178 -822.15 
L 415.11824 -822.15 
L 384.905733 -822.15 
L 347.671867 -822.15 
L 313.645725 -822.15 
L 282.549054 -822.15 
L 247.406122 -822.15 
L 216 -822.15 
L 216 -822.15 
L 216 -822.15 
L 247.406122 -822.15 
L 282.549054 -822.15 
L 313.645725 -822.15 
L 347.671867 -822.15 
L 384.905733 -822.15 
L 415.11824 -822.15 
L 447.432178 -822.15 
L 482.001158 -822.15 
L 518.976397 -822.15 
L 557.129989 -822.15 
L 586.37319 -822.15 
L 615.650626 -796.165094 
L 648.965293 -785.609437 
L 678.105604 -754.140207 
L 710.248333 -707.498711 
L 739.718561 -671.815122 
L 770.905437 -638.614221 
L 805.802713 -605.943935 
L 836.686585 -574.810938 
L 870.476348 -540.74788 
L 907.445484 -503.481581 
L 941.54777 -493.447748 
L 974.141643 -513.265698 
L 1004.871744 -531.950533 
L 1039.258555 -552.85877 
L 1069.691525 -571.362956 
L 1102.988631 -591.608618 
L 1139.419497 -613.759704 
L 1168.959524 -631.701383 
L 1200.59045 -650.945963 
L 1234.55451 -671.041429 
L 1271.169873 -691.630002 
L 1310.786488 -712.311894 
L 1353.844221 -732.374057 
L 1384.210099 -746.598031 
L 1413.756026 -759.403614 
L 1449.049423 -770.031105 
L 1486.79825 -780.195988 
L 1524.781936 -785.283257 
L 1555.2 -588.293784 
z
" id="mc0b6ad5343" style="stroke:#000000;"/>
    </defs>
    <g clip-path="url(#p766b7bdba0)">
     <use style="fill:#0000ff;stroke:#000000;" x="0.0" xlink:href="#mc0b6ad5343" y="913.5"/>
    </g>
   </g>
   <g id="PolyCollection_9">
    <defs>
     <path d="M 1555.2 -624.833822 
L 1555.2 -588.293784 
L 1524.781936 -785.283257 
L 1486.79825 -780.195988 
L 1449.049423 -770.031105 
L 1413.756026 -759.403614 
L 1384.210099 -746.598031 
L 1353.844221 -732.374057 
L 1310.786488 -712.311894 
L 1271.169873 -691.630002 
L 1234.55451 -671.041429 
L 1200.59045 -650.945963 
L 1168.959524 -631.701383 
L 1139.419497 -613.759704 
L 1102.988631 -591.608618 
L 1069.691525 -571.362956 
L 1039.258555 -552.85877 
L 1004.871744 -531.950533 
L 974.141643 -513.265698 
L 941.54777 -493.447748 
L 907.445484 -503.481581 
L 870.476348 -540.74788 
L 836.686585 -574.810938 
L 805.802713 -605.943935 
L 770.905437 -638.614221 
L 739.718561 -671.815122 
L 710.248333 -707.498711 
L 678.105604 -754.140207 
L 648.965293 -785.609437 
L 615.650626 -796.165094 
L 586.37319 -822.15 
L 557.129989 -822.15 
L 518.976397 -822.15 
L 482.001158 -822.15 
L 447.432178 -822.15 
L 415.11824 -822.15 
L 384.905733 -822.15 
L 347.671867 -822.15 
L 313.645725 -822.15 
L 282.549054 -822.15 
L 247.406122 -822.15 
L 216 -822.15 
L 216 -822.15 
L 216 -822.15 
L 247.406122 -822.15 
L 282.549054 -822.15 
L 313.645725 -822.15 
L 347.671867 -822.15 
L 384.905733 -822.15 
L 415.11824 -822.15 
L 447.432178 -822.15 
L 482.001158 -822.15 
L 518.976397 -822.15 
L 557.129989 -822.15 
L 586.37319 -822.15 
L 615.650626 -822.15 
L 648.965293 -822.15 
L 678.105604 -822.15 
L 710.248333 -822.15 
L 739.718561 -822.15 
L 770.905437 -822.15 
L 805.802713 -822.15 
L 836.686585 -822.15 
L 870.476348 -822.15 
L 907.445484 -822.15 
L 941.54777 -822.15 
L 974.141643 -822.15 
L 1004.871744 -822.15 
L 1039.258555 -822.15 
L 1069.691525 -822.15 
L 1102.988631 -822.15 
L 1139.419497 -822.15 
L 1168.959524 -822.15 
L 1200.59045 -822.15 
L 1234.55451 -822.15 
L 1271.169873 -822.15 
L 1310.786488 -822.15 
L 1353.844221 -822.15 
L 1384.210099 -822.15 
L 1413.756026 -822.15 
L 1449.049423 -822.15 
L 1486.79825 -822.15 
L 1524.781936 -822.15 
L 1555.2 -624.833822 
z
" id="m712dc161bb" style="stroke:#000000;"/>
    </defs>
    <g clip-path="url(#p766b7bdba0)">
     <use style="fill:#008000;stroke:#000000;" x="0.0" xlink:href="#m712dc161bb" y="913.5"/>
    </g>
   </g>
   <g id="PolyCollection_10">
    <defs>
     <path d="M 1555.2 -822.15 
L 1555.2 -624.833822 
L 1524.781936 -822.15 
L 1486.79825 -822.15 
L 1449.049423 -822.15 
L 1413.756026 -822.15 
L 1384.210099 -822.15 
L 1353.844221 -822.15 
L 1310.786488 -822.15 
L 1271.169873 -822.15 
L 1234.55451 -822.15 
L 1200.59045 -822.15 
L 1168.959524 -822.15 
L 1139.419497 -822.15 
L 1102.988631 -822.15 
L 1069.691525 -822.15 
L 1039.258555 -822.15 
L 1004.871744 -822.15 
L 974.141643 -822.15 
L 941.54777 -822.15 
L 907.445484 -822.15 
L 870.476348 -822.15 
L 836.686585 -822.15 
L 805.802713 -822.15 
L 770.905437 -822.15 
L 739.718561 -822.15 
L 710.248333 -822.15 
L 678.105604 -822.15 
L 648.965293 -822.15 
L 615.650626 -822.15 
L 586.37319 -822.15 
L 557.129989 -822.15 
L 518.976397 -822.15 
L 482.001158 -822.15 
L 447.432178 -822.15 
L 415.11824 -822.15 
L 384.905733 -822.15 
L 347.671867 -822.15 
L 313.645725 -822.15 
L 282.549054 -822.15 
L 247.406122 -822.15 
L 216 -822.15 
L 216 -822.15 
L 216 -822.15 
L 247.406122 -822.15 
L 282.549054 -822.15 
L 313.645725 -822.15 
L 347.671867 -822.15 
L 384.905733 -822.15 
L 415.11824 -822.15 
L 447.432178 -822.15 
L 482.001158 -822.15 
L 518.976397 -822.15 
L 557.129989 -822.15 
L 586.37319 -822.15 
L 615.650626 -822.15 
L 648.965293 -822.15 
L 678.105604 -822.15 
L 710.248333 -822.15 
L 739.718561 -822.15 
L 770.905437 -822.15 
L 805.802713 -822.15 
L 836.686585 -822.15 
L 870.476348 -822.15 
L 907.445484 -822.15 
L 941.54777 -822.15 
L 974.141643 -822.15 
L 1004.871744 -822.15 
L 1039.258555 -822.15 
L 1069.691525 -822.15 
L 1102.988631 -822.15 
L 1139.419497 -822.15 
L 1168.959524 -822.15 
L 1200.59045 -822.15 
L 1234.55451 -822.15 
L 1271.169873 -822.15 
L 1310.786488 -822.15 
L 1353.844221 -822.15 
L 1384.210099 -822.15 
L 1413.756026 -822.15 
L 1449.049423 -822.15 
L 1486.79825 -822.15 
L 1524.781936 -822.15 
L 1555.2 -822.15 
z
" id="m7b3fe2d399" style="stroke:#000000;"/>
    </defs>
    <g clip-path="url(#p766b7bdba0)">
     <use style="fill:#ff0000;stroke:#000000;" x="0.0" xlink:href="#m7b3fe2d399" y="913.5"/>
    </g>
   </g>
   <g id="patch_3">
    <path d="M 216 822.15 
L 216 91.35 
" style="fill:none;stroke:#000000;stroke-linecap:square;stroke-linejoin:miter;"/>
   </g>
   <g id="patch_4">
    <path d="M 1555.2 822.15 
L 1555.2 91.35 
" style="fill:none;stroke:#000000;stroke-linecap:square;stroke-linejoin:miter;"/>
   </g>
   <g id="patch_5">
    <path d="M 216 91.35 
L 1555.2 91.35 
" style="fill:none;stroke:#000000;stroke-linecap:square;stroke-linejoin:miter;"/>
   </g>
   <g id="patch_6">
    <path d="M 216 822.15 
L 1555.2 822.15 
" style="fill:none;stroke:#000000;stroke-linecap:square;stroke-linejoin:miter;"/>
   </g>
   <g id="matplotlib.axis_1">
    <g id="xtick_1">
     <g id="line2d_1">
      <defs>
       <path d="M 0 0 
L 0 -4 
" id="mdbcca583f2" style="stroke:#000000;stroke-width:0.5;"/>
      </defs>
      <g>
       <use style="stroke:#000000;stroke-width:0.5;" x="444.228924347" xlink:href="#mdbcca583f2" y="822.15"/>
      </g>
     </g>
     <g id="line2d_2">
      <defs>
       <path d="M 0 0 
L 0 4 
" id="md73d68a52d" style="stroke:#000000;stroke-width:0.5;"/>
      </defs>
      <g>
       <use style="stroke:#000000;stroke-width:0.5;" x="444.228924347" xlink:href="#md73d68a52d" y="91.35"/>
      </g>
     </g>
     <g id="text_1">
      <!-- 1.04 -->
      <defs>
       <path d="M 12.40625 8.296875 
L 28.515625 8.296875 
L 28.515625 63.921875 
L 10.984375 60.40625 
L 10.984375 69.390625 
L 28.421875 72.90625 
L 38.28125 72.90625 
L 38.28125 8.296875 
L 54.390625 8.296875 
L 54.390625 0 
L 12.40625 0 
z
" id="DejaVuSans-31"/>
       <path d="M 10.6875 12.40625 
L 21 12.40625 
L 21 0 
L 10.6875 0 
z
" id="DejaVuSans-2e"/>
       <path d="M 37.796875 64.3125 
L 12.890625 25.390625 
L 37.796875 25.390625 
z
M 35.203125 72.90625 
L 47.609375 72.90625 
L 47.609375 25.390625 
L 58.015625 25.390625 
L 58.015625 17.1875 
L 47.609375 17.1875 
L 47.609375 0 
L 37.796875 0 
L 37.796875 17.1875 
L 4.890625 17.1875 
L 4.890625 26.703125 
z
" id="DejaVuSans-34"/>
       <path d="M 31.78125 66.40625 
Q 24.171875 66.40625 20.328125 58.90625 
Q 16.5 51.421875 16.5 36.375 
Q 16.5 21.390625 20.328125 13.890625 
Q 24.171875 6.390625 31.78125 6.390625 
Q 39.453125 6.390625 43.28125 13.890625 
Q 47.125 21.390625 47.125 36.375 
Q 47.125 51.421875 43.28125 58.90625 
Q 39.453125 66.40625 31.78125 66.40625 
M 31.78125 74.21875 
Q 44.046875 74.21875 50.515625 64.515625 
Q 56.984375 54.828125 56.984375 36.375 
Q 56.984375 17.96875 50.515625 8.265625 
Q 44.046875 -1.421875 31.78125 -1.421875 
Q 19.53125 -1.421875 13.0625 8.265625 
Q 6.59375 17.96875 6.59375 36.375 
Q 6.59375 54.828125 13.0625 64.515625 
Q 19.53125 74.21875 31.78125 74.21875 
" id="DejaVuSans-30"/>
      </defs>
      <g transform="translate(430.869549347 835.268125)scale(0.12 -0.12)">
       <use xlink:href="#DejaVuSans-31"/>
       <use x="63.623046875" xlink:href="#DejaVuSans-2e"/>
       <use x="95.41015625" xlink:href="#DejaVuSans-30"/>
       <use x="159.033203125" xlink:href="#DejaVuSans-34"/>
      </g>
     </g>
    </g>
    <g id="xtick_2">
     <g id="line2d_3">
      <g>
       <use style="stroke:#000000;stroke-width:0.5;" x="735.246652537" xlink:href="#mdbcca583f2" y="822.15"/>
      </g>
     </g>
     <g id="line2d_4">
      <g>
       <use style="stroke:#000000;stroke-width:0.5;" x="735.246652537" xlink:href="#md73d68a52d" y="91.35"/>
      </g>
     </g>
     <g id="text_2">
      <!-- 1.05 -->
      <defs>
       <path d="M 10.796875 72.90625 
L 49.515625 72.90625 
L 49.515625 64.59375 
L 19.828125 64.59375 
L 19.828125 46.734375 
Q 21.96875 47.46875 24.109375 47.828125 
Q 26.265625 48.1875 28.421875 48.1875 
Q 40.625 48.1875 47.75 41.5 
Q 54.890625 34.8125 54.890625 23.390625 
Q 54.890625 11.625 47.5625 5.09375 
Q 40.234375 -1.421875 26.90625 -1.421875 
Q 22.3125 -1.421875 17.546875 -0.640625 
Q 12.796875 0.140625 7.71875 1.703125 
L 7.71875 11.625 
Q 12.109375 9.234375 16.796875 8.0625 
Q 21.484375 6.890625 26.703125 6.890625 
Q 35.15625 6.890625 40.078125 11.328125 
Q 45.015625 15.765625 45.015625 23.390625 
Q 45.015625 31 40.078125 35.4375 
Q 35.15625 39.890625 26.703125 39.890625 
Q 22.75 39.890625 18.8125 39.015625 
Q 14.890625 38.140625 10.796875 36.28125 
z
" id="DejaVuSans-35"/>
      </defs>
      <g transform="translate(721.887277537 835.268125)scale(0.12 -0.12)">
       <use xlink:href="#DejaVuSans-31"/>
       <use x="63.623046875" xlink:href="#DejaVuSans-2e"/>
       <use x="95.41015625" xlink:href="#DejaVuSans-30"/>
       <use x="159.033203125" xlink:href="#DejaVuSans-35"/>
      </g>
     </g>
    </g>
    <g id="xtick_3">
     <g id="line2d_5">
      <g>
       <use style="stroke:#000000;stroke-width:0.5;" x="1026.26438073" xlink:href="#mdbcca583f2" y="822.15"/>
      </g>
     </g>
     <g id="line2d_6">
      <g>
       <use style="stroke:#000000;stroke-width:0.5;" x="1026.26438073" xlink:href="#md73d68a52d" y="91.35"/>
      </g>
     </g>
     <g id="text_3">
      <!-- 1.06 -->
      <defs>
       <path d="M 33.015625 40.375 
Q 26.375 40.375 22.484375 35.828125 
Q 18.609375 31.296875 18.609375 23.390625 
Q 18.609375 15.53125 22.484375 10.953125 
Q 26.375 6.390625 33.015625 6.390625 
Q 39.65625 6.390625 43.53125 10.953125 
Q 47.40625 15.53125 47.40625 23.390625 
Q 47.40625 31.296875 43.53125 35.828125 
Q 39.65625 40.375 33.015625 40.375 
M 52.59375 71.296875 
L 52.59375 62.3125 
Q 48.875 64.0625 45.09375 64.984375 
Q 41.3125 65.921875 37.59375 65.921875 
Q 27.828125 65.921875 22.671875 59.328125 
Q 17.53125 52.734375 16.796875 39.40625 
Q 19.671875 43.65625 24.015625 45.921875 
Q 28.375 48.1875 33.59375 48.1875 
Q 44.578125 48.1875 50.953125 41.515625 
Q 57.328125 34.859375 57.328125 23.390625 
Q 57.328125 12.15625 50.6875 5.359375 
Q 44.046875 -1.421875 33.015625 -1.421875 
Q 20.359375 -1.421875 13.671875 8.265625 
Q 6.984375 17.96875 6.984375 36.375 
Q 6.984375 53.65625 15.1875 63.9375 
Q 23.390625 74.21875 37.203125 74.21875 
Q 40.921875 74.21875 44.703125 73.484375 
Q 48.484375 72.75 52.59375 71.296875 
" id="DejaVuSans-36"/>
      </defs>
      <g transform="translate(1012.90500573 835.268125)scale(0.12 -0.12)">
       <use xlink:href="#DejaVuSans-31"/>
       <use x="63.623046875" xlink:href="#DejaVuSans-2e"/>
       <use x="95.41015625" xlink:href="#DejaVuSans-30"/>
       <use x="159.033203125" xlink:href="#DejaVuSans-36"/>
      </g>
     </g>
    </g>
    <g id="xtick_4">
     <g id="line2d_7">
      <g>
       <use style="stroke:#000000;stroke-width:0.5;" x="1317.28210892" xlink:href="#mdbcca583f2" y="822.15"/>
      </g>
     </g>
     <g id="line2d_8">
      <g>
       <use style="stroke:#000000;stroke-width:0.5;" x="1317.28210892" xlink:href="#md73d68a52d" y="91.35"/>
      </g>
     </g>
     <g id="text_4">
      <!-- 1.07 -->
      <defs>
       <path d="M 8.203125 72.90625 
L 55.078125 72.90625 
L 55.078125 68.703125 
L 28.609375 0 
L 18.3125 0 
L 43.21875 64.59375 
L 8.203125 64.59375 
z
" id="DejaVuSans-37"/>
      </defs>
      <g transform="translate(1303.92273392 835.268125)scale(0.12 -0.12)">
       <use xlink:href="#DejaVuSans-31"/>
       <use x="63.623046875" xlink:href="#DejaVuSans-2e"/>
       <use x="95.41015625" xlink:href="#DejaVuSans-30"/>
       <use x="159.033203125" xlink:href="#DejaVuSans-37"/>
      </g>
     </g>
    </g>
    <g id="text_5">
     <!-- Expected return -->
     <defs>
      <path d="M 8.5 21.578125 
L 8.5 54.6875 
L 17.484375 54.6875 
L 17.484375 21.921875 
Q 17.484375 14.15625 20.5 10.265625 
Q 23.53125 6.390625 29.59375 6.390625 
Q 36.859375 6.390625 41.078125 11.03125 
Q 45.3125 15.671875 45.3125 23.6875 
L 45.3125 54.6875 
L 54.296875 54.6875 
L 54.296875 0 
L 45.3125 0 
L 45.3125 8.40625 
Q 42.046875 3.421875 37.71875 1 
Q 33.40625 -1.421875 27.6875 -1.421875 
Q 18.265625 -1.421875 13.375 4.4375 
Q 8.5 10.296875 8.5 21.578125 
M 31.109375 56 
z
" id="DejaVuSans-75"/>
      <path d="M 18.109375 8.203125 
L 18.109375 -20.796875 
L 9.078125 -20.796875 
L 9.078125 54.6875 
L 18.109375 54.6875 
L 18.109375 46.390625 
Q 20.953125 51.265625 25.265625 53.625 
Q 29.59375 56 35.59375 56 
Q 45.5625 56 51.78125 48.09375 
Q 58.015625 40.1875 58.015625 27.296875 
Q 58.015625 14.40625 51.78125 6.484375 
Q 45.5625 -1.421875 35.59375 -1.421875 
Q 29.59375 -1.421875 25.265625 0.953125 
Q 20.953125 3.328125 18.109375 8.203125 
M 48.6875 27.296875 
Q 48.6875 37.203125 44.609375 42.84375 
Q 40.53125 48.484375 33.40625 48.484375 
Q 26.265625 48.484375 22.1875 42.84375 
Q 18.109375 37.203125 18.109375 27.296875 
Q 18.109375 17.390625 22.1875 11.75 
Q 26.265625 6.109375 33.40625 6.109375 
Q 40.53125 6.109375 44.609375 11.75 
Q 48.6875 17.390625 48.6875 27.296875 
" id="DejaVuSans-70"/>
      <path id="DejaVuSans-20"/>
      <path d="M 41.109375 46.296875 
Q 39.59375 47.171875 37.8125 47.578125 
Q 36.03125 48 33.890625 48 
Q 26.265625 48 22.1875 43.046875 
Q 18.109375 38.09375 18.109375 28.8125 
L 18.109375 0 
L 9.078125 0 
L 9.078125 54.6875 
L 18.109375 54.6875 
L 18.109375 46.1875 
Q 20.953125 51.171875 25.484375 53.578125 
Q 30.03125 56 36.53125 56 
Q 37.453125 56 38.578125 55.875 
Q 39.703125 55.765625 41.0625 55.515625 
z
" id="DejaVuSans-72"/>
      <path d="M 18.3125 70.21875 
L 18.3125 54.6875 
L 36.8125 54.6875 
L 36.8125 47.703125 
L 18.3125 47.703125 
L 18.3125 18.015625 
Q 18.3125 11.328125 20.140625 9.421875 
Q 21.96875 7.515625 27.59375 7.515625 
L 36.8125 7.515625 
L 36.8125 0 
L 27.59375 0 
Q 17.1875 0 13.234375 3.875 
Q 9.28125 7.765625 9.28125 18.015625 
L 9.28125 47.703125 
L 2.6875 47.703125 
L 2.6875 54.6875 
L 9.28125 54.6875 
L 9.28125 70.21875 
z
" id="DejaVuSans-74"/>
      <path d="M 54.890625 54.6875 
L 35.109375 28.078125 
L 55.90625 0 
L 45.3125 0 
L 29.390625 21.484375 
L 13.484375 0 
L 2.875 0 
L 24.125 28.609375 
L 4.6875 54.6875 
L 15.28125 54.6875 
L 29.78125 35.203125 
L 44.28125 54.6875 
z
" id="DejaVuSans-78"/>
      <path d="M 45.40625 46.390625 
L 45.40625 75.984375 
L 54.390625 75.984375 
L 54.390625 0 
L 45.40625 0 
L 45.40625 8.203125 
Q 42.578125 3.328125 38.25 0.953125 
Q 33.9375 -1.421875 27.875 -1.421875 
Q 17.96875 -1.421875 11.734375 6.484375 
Q 5.515625 14.40625 5.515625 27.296875 
Q 5.515625 40.1875 11.734375 48.09375 
Q 17.96875 56 27.875 56 
Q 33.9375 56 38.25 53.625 
Q 42.578125 51.265625 45.40625 46.390625 
M 14.796875 27.296875 
Q 14.796875 17.390625 18.875 11.75 
Q 22.953125 6.109375 30.078125 6.109375 
Q 37.203125 6.109375 41.296875 11.75 
Q 45.40625 17.390625 45.40625 27.296875 
Q 45.40625 37.203125 41.296875 42.84375 
Q 37.203125 48.484375 30.078125 48.484375 
Q 22.953125 48.484375 18.875 42.84375 
Q 14.796875 37.203125 14.796875 27.296875 
" id="DejaVuSans-64"/>
      <path d="M 56.203125 29.59375 
L 56.203125 25.203125 
L 14.890625 25.203125 
Q 15.484375 15.921875 20.484375 11.0625 
Q 25.484375 6.203125 34.421875 6.203125 
Q 39.59375 6.203125 44.453125 7.46875 
Q 49.3125 8.734375 54.109375 11.28125 
L 54.109375 2.78125 
Q 49.265625 0.734375 44.1875 -0.34375 
Q 39.109375 -1.421875 33.890625 -1.421875 
Q 20.796875 -1.421875 13.15625 6.1875 
Q 5.515625 13.8125 5.515625 26.8125 
Q 5.515625 40.234375 12.765625 48.109375 
Q 20.015625 56 32.328125 56 
Q 43.359375 56 49.78125 48.890625 
Q 56.203125 41.796875 56.203125 29.59375 
M 47.21875 32.234375 
Q 47.125 39.59375 43.09375 43.984375 
Q 39.0625 48.390625 32.421875 48.390625 
Q 24.90625 48.390625 20.390625 44.140625 
Q 15.875 39.890625 15.1875 32.171875 
z
" id="DejaVuSans-65"/>
      <path d="M 54.890625 33.015625 
L 54.890625 0 
L 45.90625 0 
L 45.90625 32.71875 
Q 45.90625 40.484375 42.875 44.328125 
Q 39.84375 48.1875 33.796875 48.1875 
Q 26.515625 48.1875 22.3125 43.546875 
Q 18.109375 38.921875 18.109375 30.90625 
L 18.109375 0 
L 9.078125 0 
L 9.078125 54.6875 
L 18.109375 54.6875 
L 18.109375 46.1875 
Q 21.34375 51.125 25.703125 53.5625 
Q 30.078125 56 35.796875 56 
Q 45.21875 56 50.046875 50.171875 
Q 54.890625 44.34375 54.890625 33.015625 
" id="DejaVuSans-6e"/>
      <path d="M 48.78125 52.59375 
L 48.78125 44.1875 
Q 44.96875 46.296875 41.140625 47.34375 
Q 37.3125 48.390625 33.40625 48.390625 
Q 24.65625 48.390625 19.8125 42.84375 
Q 14.984375 37.3125 14.984375 27.296875 
Q 14.984375 17.28125 19.8125 11.734375 
Q 24.65625 6.203125 33.40625 6.203125 
Q 37.3125 6.203125 41.140625 7.25 
Q 44.96875 8.296875 48.78125 10.40625 
L 48.78125 2.09375 
Q 45.015625 0.34375 40.984375 -0.53125 
Q 36.96875 -1.421875 32.421875 -1.421875 
Q 20.0625 -1.421875 12.78125 6.34375 
Q 5.515625 14.109375 5.515625 27.296875 
Q 5.515625 40.671875 12.859375 48.328125 
Q 20.21875 56 33.015625 56 
Q 37.15625 56 41.109375 55.140625 
Q 45.0625 54.296875 48.78125 52.59375 
" id="DejaVuSans-63"/>
      <path d="M 9.8125 72.90625 
L 55.90625 72.90625 
L 55.90625 64.59375 
L 19.671875 64.59375 
L 19.671875 43.015625 
L 54.390625 43.015625 
L 54.390625 34.71875 
L 19.671875 34.71875 
L 19.671875 8.296875 
L 56.78125 8.296875 
L 56.78125 0 
L 9.8125 0 
z
" id="DejaVuSans-45"/>
     </defs>
     <g transform="translate(837.118125 851.881875)scale(0.12 -0.12)">
      <use xlink:href="#DejaVuSans-45"/>
      <use x="63.18359375" xlink:href="#DejaVuSans-78"/>
      <use x="122.36328125" xlink:href="#DejaVuSans-70"/>
      <use x="185.83984375" xlink:href="#DejaVuSans-65"/>
      <use x="247.36328125" xlink:href="#DejaVuSans-63"/>
      <use x="302.34375" xlink:href="#DejaVuSans-74"/>
      <use x="341.552734375" xlink:href="#DejaVuSans-65"/>
      <use x="403.076171875" xlink:href="#DejaVuSans-64"/>
      <use x="466.552734375" xlink:href="#DejaVuSans-20"/>
      <use x="498.33984375" xlink:href="#DejaVuSans-72"/>
      <use x="539.421875" xlink:href="#DejaVuSans-65"/>
      <use x="600.9453125" xlink:href="#DejaVuSans-74"/>
      <use x="640.154296875" xlink:href="#DejaVuSans-75"/>
      <use x="703.533203125" xlink:href="#DejaVuSans-72"/>
      <use x="744.630859375" xlink:href="#DejaVuSans-6e"/>
     </g>
    </g>
   </g>
   <g id="matplotlib.axis_2">
    <g id="ytick_1">
     <g id="line2d_9">
      <defs>
       <path d="M 0 0 
L 4 0 
" id="ma59207a244" style="stroke:#000000;stroke-width:0.5;"/>
      </defs>
      <g>
       <use style="stroke:#000000;stroke-width:0.5;" x="216.0" xlink:href="#ma59207a244" y="822.15"/>
      </g>
     </g>
     <g id="line2d_10">
      <defs>
       <path d="M 0 0 
L -4 0 
" id="m707b614965" style="stroke:#000000;stroke-width:0.5;"/>
      </defs>
      <g>
       <use style="stroke:#000000;stroke-width:0.5;" x="1555.2" xlink:href="#m707b614965" y="822.15"/>
      </g>
     </g>
     <g id="text_6">
      <!-- 0.0 -->
      <g transform="translate(192.91625 825.46125)scale(0.12 -0.12)">
       <use xlink:href="#DejaVuSans-30"/>
       <use x="63.623046875" xlink:href="#DejaVuSans-2e"/>
       <use x="95.41015625" xlink:href="#DejaVuSans-30"/>
      </g>
     </g>
    </g>
    <g id="ytick_2">
     <g id="line2d_11">
      <g>
       <use style="stroke:#000000;stroke-width:0.5;" x="216.0" xlink:href="#ma59207a244" y="675.99"/>
      </g>
     </g>
     <g id="line2d_12">
      <g>
       <use style="stroke:#000000;stroke-width:0.5;" x="1555.2" xlink:href="#m707b614965" y="675.99"/>
      </g>
     </g>
     <g id="text_7">
      <!-- 0.2 -->
      <defs>
       <path d="M 19.1875 8.296875 
L 53.609375 8.296875 
L 53.609375 0 
L 7.328125 0 
L 7.328125 8.296875 
Q 12.9375 14.109375 22.625 23.890625 
Q 32.328125 33.6875 34.8125 36.53125 
Q 39.546875 41.84375 41.421875 45.53125 
Q 43.3125 49.21875 43.3125 52.78125 
Q 43.3125 58.59375 39.234375 62.25 
Q 35.15625 65.921875 28.609375 65.921875 
Q 23.96875 65.921875 18.8125 64.3125 
Q 13.671875 62.703125 7.8125 59.421875 
L 7.8125 69.390625 
Q 13.765625 71.78125 18.9375 73 
Q 24.125 74.21875 28.421875 74.21875 
Q 39.75 74.21875 46.484375 68.546875 
Q 53.21875 62.890625 53.21875 53.421875 
Q 53.21875 48.921875 51.53125 44.890625 
Q 49.859375 40.875 45.40625 35.40625 
Q 44.1875 33.984375 37.640625 27.21875 
Q 31.109375 20.453125 19.1875 8.296875 
" id="DejaVuSans-32"/>
      </defs>
      <g transform="translate(192.91625 679.30125)scale(0.12 -0.12)">
       <use xlink:href="#DejaVuSans-30"/>
       <use x="63.623046875" xlink:href="#DejaVuSans-2e"/>
       <use x="95.41015625" xlink:href="#DejaVuSans-32"/>
      </g>
     </g>
    </g>
    <g id="ytick_3">
     <g id="line2d_13">
      <g>
       <use style="stroke:#000000;stroke-width:0.5;" x="216.0" xlink:href="#ma59207a244" y="529.83"/>
      </g>
     </g>
     <g id="line2d_14">
      <g>
       <use style="stroke:#000000;stroke-width:0.5;" x="1555.2" xlink:href="#m707b614965" y="529.83"/>
      </g>
     </g>
     <g id="text_8">
      <!-- 0.4 -->
      <g transform="translate(192.91625 533.14125)scale(0.12 -0.12)">
       <use xlink:href="#DejaVuSans-30"/>
       <use x="63.623046875" xlink:href="#DejaVuSans-2e"/>
       <use x="95.41015625" xlink:href="#DejaVuSans-34"/>
      </g>
     </g>
    </g>
    <g id="ytick_4">
     <g id="line2d_15">
      <g>
       <use style="stroke:#000000;stroke-width:0.5;" x="216.0" xlink:href="#ma59207a244" y="383.67"/>
      </g>
     </g>
     <g id="line2d_16">
      <g>
       <use style="stroke:#000000;stroke-width:0.5;" x="1555.2" xlink:href="#m707b614965" y="383.67"/>
      </g>
     </g>
     <g id="text_9">
      <!-- 0.6 -->
      <g transform="translate(192.91625 386.98125)scale(0.12 -0.12)">
       <use xlink:href="#DejaVuSans-30"/>
       <use x="63.623046875" xlink:href="#DejaVuSans-2e"/>
       <use x="95.41015625" xlink:href="#DejaVuSans-36"/>
      </g>
     </g>
    </g>
    <g id="ytick_5">
     <g id="line2d_17">
      <g>
       <use style="stroke:#000000;stroke-width:0.5;" x="216.0" xlink:href="#ma59207a244" y="237.51"/>
      </g>
     </g>
     <g id="line2d_18">
      <g>
       <use style="stroke:#000000;stroke-width:0.5;" x="1555.2" xlink:href="#m707b614965" y="237.51"/>
      </g>
     </g>
     <g id="text_10">
      <!-- 0.8 -->
      <defs>
       <path d="M 31.78125 34.625 
Q 24.75 34.625 20.71875 30.859375 
Q 16.703125 27.09375 16.703125 20.515625 
Q 16.703125 13.921875 20.71875 10.15625 
Q 24.75 6.390625 31.78125 6.390625 
Q 38.8125 6.390625 42.859375 10.171875 
Q 46.921875 13.96875 46.921875 20.515625 
Q 46.921875 27.09375 42.890625 30.859375 
Q 38.875 34.625 31.78125 34.625 
M 21.921875 38.8125 
Q 15.578125 40.375 12.03125 44.71875 
Q 8.5 49.078125 8.5 55.328125 
Q 8.5 64.0625 14.71875 69.140625 
Q 20.953125 74.21875 31.78125 74.21875 
Q 42.671875 74.21875 48.875 69.140625 
Q 55.078125 64.0625 55.078125 55.328125 
Q 55.078125 49.078125 51.53125 44.71875 
Q 48 40.375 41.703125 38.8125 
Q 48.828125 37.15625 52.796875 32.3125 
Q 56.78125 27.484375 56.78125 20.515625 
Q 56.78125 9.90625 50.3125 4.234375 
Q 43.84375 -1.421875 31.78125 -1.421875 
Q 19.734375 -1.421875 13.25 4.234375 
Q 6.78125 9.90625 6.78125 20.515625 
Q 6.78125 27.484375 10.78125 32.3125 
Q 14.796875 37.15625 21.921875 38.8125 
M 18.3125 54.390625 
Q 18.3125 48.734375 21.84375 45.5625 
Q 25.390625 42.390625 31.78125 42.390625 
Q 38.140625 42.390625 41.71875 45.5625 
Q 45.3125 48.734375 45.3125 54.390625 
Q 45.3125 60.0625 41.71875 63.234375 
Q 38.140625 66.40625 31.78125 66.40625 
Q 25.390625 66.40625 21.84375 63.234375 
Q 18.3125 60.0625 18.3125 54.390625 
" id="DejaVuSans-38"/>
      </defs>
      <g transform="translate(192.91625 240.82125)scale(0.12 -0.12)">
       <use xlink:href="#DejaVuSans-30"/>
       <use x="63.623046875" xlink:href="#DejaVuSans-2e"/>
       <use x="95.41015625" xlink:href="#DejaVuSans-38"/>
      </g>
     </g>
    </g>
    <g id="ytick_6">
     <g id="line2d_19">
      <g>
       <use style="stroke:#000000;stroke-width:0.5;" x="216.0" xlink:href="#ma59207a244" y="91.35"/>
      </g>
     </g>
     <g id="line2d_20">
      <g>
       <use style="stroke:#000000;stroke-width:0.5;" x="1555.2" xlink:href="#m707b614965" y="91.35"/>
      </g>
     </g>
     <g id="text_11">
      <!-- 1.0 -->
      <g transform="translate(192.91625 94.66125)scale(0.12 -0.12)">
       <use xlink:href="#DejaVuSans-31"/>
       <use x="63.623046875" xlink:href="#DejaVuSans-2e"/>
       <use x="95.41015625" xlink:href="#DejaVuSans-30"/>
      </g>
     </g>
    </g>
    <g id="text_12">
     <!-- Share -->
     <defs>
      <path d="M 53.515625 70.515625 
L 53.515625 60.890625 
Q 47.90625 63.578125 42.921875 64.890625 
Q 37.9375 66.21875 33.296875 66.21875 
Q 25.25 66.21875 20.875 63.09375 
Q 16.5 59.96875 16.5 54.203125 
Q 16.5 49.359375 19.40625 46.890625 
Q 22.3125 44.4375 30.421875 42.921875 
L 36.375 41.703125 
Q 47.40625 39.59375 52.65625 34.296875 
Q 57.90625 29 57.90625 20.125 
Q 57.90625 9.515625 50.796875 4.046875 
Q 43.703125 -1.421875 29.984375 -1.421875 
Q 24.8125 -1.421875 18.96875 -0.25 
Q 13.140625 0.921875 6.890625 3.21875 
L 6.890625 13.375 
Q 12.890625 10.015625 18.65625 8.296875 
Q 24.421875 6.59375 29.984375 6.59375 
Q 38.421875 6.59375 43.015625 9.90625 
Q 47.609375 13.234375 47.609375 19.390625 
Q 47.609375 24.75 44.3125 27.78125 
Q 41.015625 30.8125 33.5 32.328125 
L 27.484375 33.5 
Q 16.453125 35.6875 11.515625 40.375 
Q 6.59375 45.0625 6.59375 53.421875 
Q 6.59375 63.09375 13.40625 68.65625 
Q 20.21875 74.21875 32.171875 74.21875 
Q 37.3125 74.21875 42.625 73.28125 
Q 47.953125 72.359375 53.515625 70.515625 
" id="DejaVuSans-53"/>
      <path d="M 34.28125 27.484375 
Q 23.390625 27.484375 19.1875 25 
Q 14.984375 22.515625 14.984375 16.5 
Q 14.984375 11.71875 18.140625 8.90625 
Q 21.296875 6.109375 26.703125 6.109375 
Q 34.1875 6.109375 38.703125 11.40625 
Q 43.21875 16.703125 43.21875 25.484375 
L 43.21875 27.484375 
z
M 52.203125 31.203125 
L 52.203125 0 
L 43.21875 0 
L 43.21875 8.296875 
Q 40.140625 3.328125 35.546875 0.953125 
Q 30.953125 -1.421875 24.3125 -1.421875 
Q 15.921875 -1.421875 10.953125 3.296875 
Q 6 8.015625 6 15.921875 
Q 6 25.140625 12.171875 29.828125 
Q 18.359375 34.515625 30.609375 34.515625 
L 43.21875 34.515625 
L 43.21875 35.40625 
Q 43.21875 41.609375 39.140625 45 
Q 35.0625 48.390625 27.6875 48.390625 
Q 23 48.390625 18.546875 47.265625 
Q 14.109375 46.140625 10.015625 43.890625 
L 10.015625 52.203125 
Q 14.9375 54.109375 19.578125 55.046875 
Q 24.21875 56 28.609375 56 
Q 40.484375 56 46.34375 49.84375 
Q 52.203125 43.703125 52.203125 31.203125 
" id="DejaVuSans-61"/>
      <path d="M 54.890625 33.015625 
L 54.890625 0 
L 45.90625 0 
L 45.90625 32.71875 
Q 45.90625 40.484375 42.875 44.328125 
Q 39.84375 48.1875 33.796875 48.1875 
Q 26.515625 48.1875 22.3125 43.546875 
Q 18.109375 38.921875 18.109375 30.90625 
L 18.109375 0 
L 9.078125 0 
L 9.078125 75.984375 
L 18.109375 75.984375 
L 18.109375 46.1875 
Q 21.34375 51.125 25.703125 53.5625 
Q 30.078125 56 35.796875 56 
Q 45.21875 56 50.046875 50.171875 
Q 54.890625 44.34375 54.890625 33.015625 
" id="DejaVuSans-68"/>
     </defs>
     <g transform="translate(185.420625 474.195)rotate(-90.0)scale(0.12 -0.12)">
      <use xlink:href="#DejaVuSans-53"/>
      <use x="63.4765625" xlink:href="#DejaVuSans-68"/>
      <use x="126.85546875" xlink:href="#DejaVuSans-61"/>
      <use x="188.134765625" xlink:href="#DejaVuSans-72"/>
      <use x="229.216796875" xlink:href="#DejaVuSans-65"/>
     </g>
    </g>
   </g>
   <g id="text_13">
    <!-- Sample of portfolios(36 months) -->
    <defs>
     <path d="M 37.109375 75.984375 
L 37.109375 68.5 
L 28.515625 68.5 
Q 23.6875 68.5 21.796875 66.546875 
Q 19.921875 64.59375 19.921875 59.515625 
L 19.921875 54.6875 
L 34.71875 54.6875 
L 34.71875 47.703125 
L 19.921875 47.703125 
L 19.921875 0 
L 10.890625 0 
L 10.890625 47.703125 
L 2.296875 47.703125 
L 2.296875 54.6875 
L 10.890625 54.6875 
L 10.890625 58.5 
Q 10.890625 67.625 15.140625 71.796875 
Q 19.390625 75.984375 28.609375 75.984375 
z
" id="DejaVuSans-66"/>
     <path d="M 9.421875 75.984375 
L 18.40625 75.984375 
L 18.40625 0 
L 9.421875 0 
z
" id="DejaVuSans-6c"/>
     <path d="M 52 44.1875 
Q 55.375 50.25 60.0625 53.125 
Q 64.75 56 71.09375 56 
Q 79.640625 56 84.28125 50.015625 
Q 88.921875 44.046875 88.921875 33.015625 
L 88.921875 0 
L 79.890625 0 
L 79.890625 32.71875 
Q 79.890625 40.578125 77.09375 44.375 
Q 74.3125 48.1875 68.609375 48.1875 
Q 61.625 48.1875 57.5625 43.546875 
Q 53.515625 38.921875 53.515625 30.90625 
L 53.515625 0 
L 44.484375 0 
L 44.484375 32.71875 
Q 44.484375 40.625 41.703125 44.40625 
Q 38.921875 48.1875 33.109375 48.1875 
Q 26.21875 48.1875 22.15625 43.53125 
Q 18.109375 38.875 18.109375 30.90625 
L 18.109375 0 
L 9.078125 0 
L 9.078125 54.6875 
L 18.109375 54.6875 
L 18.109375 46.1875 
Q 21.1875 51.21875 25.484375 53.609375 
Q 29.78125 56 35.6875 56 
Q 41.65625 56 45.828125 52.96875 
Q 50 49.953125 52 44.1875 
" id="DejaVuSans-6d"/>
     <path d="M 31 75.875 
Q 24.46875 64.65625 21.28125 53.65625 
Q 18.109375 42.671875 18.109375 31.390625 
Q 18.109375 20.125 21.3125 9.0625 
Q 24.515625 -2 31 -13.1875 
L 23.1875 -13.1875 
Q 15.875 -1.703125 12.234375 9.375 
Q 8.59375 20.453125 8.59375 31.390625 
Q 8.59375 42.28125 12.203125 53.3125 
Q 15.828125 64.359375 23.1875 75.875 
z
" id="DejaVuSans-28"/>
     <path d="M 8.015625 75.875 
L 15.828125 75.875 
Q 23.140625 64.359375 26.78125 53.3125 
Q 30.421875 42.28125 30.421875 31.390625 
Q 30.421875 20.453125 26.78125 9.375 
Q 23.140625 -1.703125 15.828125 -13.1875 
L 8.015625 -13.1875 
Q 14.5 -2 17.703125 9.0625 
Q 20.90625 20.125 20.90625 31.390625 
Q 20.90625 42.671875 17.703125 53.65625 
Q 14.5 64.65625 8.015625 75.875 
" id="DejaVuSans-29"/>
     <path d="M 9.421875 54.6875 
L 18.40625 54.6875 
L 18.40625 0 
L 9.421875 0 
z
M 9.421875 75.984375 
L 18.40625 75.984375 
L 18.40625 64.59375 
L 9.421875 64.59375 
z
" id="DejaVuSans-69"/>
     <path d="M 40.578125 39.3125 
Q 47.65625 37.796875 51.625 33 
Q 55.609375 28.21875 55.609375 21.1875 
Q 55.609375 10.40625 48.1875 4.484375 
Q 40.765625 -1.421875 27.09375 -1.421875 
Q 22.515625 -1.421875 17.65625 -0.515625 
Q 12.796875 0.390625 7.625 2.203125 
L 7.625 11.71875 
Q 11.71875 9.328125 16.59375 8.109375 
Q 21.484375 6.890625 26.8125 6.890625 
Q 36.078125 6.890625 40.9375 10.546875 
Q 45.796875 14.203125 45.796875 21.1875 
Q 45.796875 27.640625 41.28125 31.265625 
Q 36.765625 34.90625 28.71875 34.90625 
L 20.21875 34.90625 
L 20.21875 43.015625 
L 29.109375 43.015625 
Q 36.375 43.015625 40.234375 45.921875 
Q 44.09375 48.828125 44.09375 54.296875 
Q 44.09375 59.90625 40.109375 62.90625 
Q 36.140625 65.921875 28.71875 65.921875 
Q 24.65625 65.921875 20.015625 65.03125 
Q 15.375 64.15625 9.8125 62.3125 
L 9.8125 71.09375 
Q 15.4375 72.65625 20.34375 73.4375 
Q 25.25 74.21875 29.59375 74.21875 
Q 40.828125 74.21875 47.359375 69.109375 
Q 53.90625 64.015625 53.90625 55.328125 
Q 53.90625 49.265625 50.4375 45.09375 
Q 46.96875 40.921875 40.578125 39.3125 
" id="DejaVuSans-33"/>
     <path d="M 44.28125 53.078125 
L 44.28125 44.578125 
Q 40.484375 46.53125 36.375 47.5 
Q 32.28125 48.484375 27.875 48.484375 
Q 21.1875 48.484375 17.84375 46.4375 
Q 14.5 44.390625 14.5 40.28125 
Q 14.5 37.15625 16.890625 35.375 
Q 19.28125 33.59375 26.515625 31.984375 
L 29.59375 31.296875 
Q 39.15625 29.25 43.1875 25.515625 
Q 47.21875 21.78125 47.21875 15.09375 
Q 47.21875 7.46875 41.1875 3.015625 
Q 35.15625 -1.421875 24.609375 -1.421875 
Q 20.21875 -1.421875 15.453125 -0.5625 
Q 10.6875 0.296875 5.421875 2 
L 5.421875 11.28125 
Q 10.40625 8.6875 15.234375 7.390625 
Q 20.0625 6.109375 24.8125 6.109375 
Q 31.15625 6.109375 34.5625 8.28125 
Q 37.984375 10.453125 37.984375 14.40625 
Q 37.984375 18.0625 35.515625 20.015625 
Q 33.0625 21.96875 24.703125 23.78125 
L 21.578125 24.515625 
Q 13.234375 26.265625 9.515625 29.90625 
Q 5.8125 33.546875 5.8125 39.890625 
Q 5.8125 47.609375 11.28125 51.796875 
Q 16.75 56 26.8125 56 
Q 31.78125 56 36.171875 55.265625 
Q 40.578125 54.546875 44.28125 53.078125 
" id="DejaVuSans-73"/>
     <path d="M 30.609375 48.390625 
Q 23.390625 48.390625 19.1875 42.75 
Q 14.984375 37.109375 14.984375 27.296875 
Q 14.984375 17.484375 19.15625 11.84375 
Q 23.34375 6.203125 30.609375 6.203125 
Q 37.796875 6.203125 41.984375 11.859375 
Q 46.1875 17.53125 46.1875 27.296875 
Q 46.1875 37.015625 41.984375 42.703125 
Q 37.796875 48.390625 30.609375 48.390625 
M 30.609375 56 
Q 42.328125 56 49.015625 48.375 
Q 55.71875 40.765625 55.71875 27.296875 
Q 55.71875 13.875 49.015625 6.21875 
Q 42.328125 -1.421875 30.609375 -1.421875 
Q 18.84375 -1.421875 12.171875 6.21875 
Q 5.515625 13.875 5.515625 27.296875 
Q 5.515625 40.765625 12.171875 48.375 
Q 18.84375 56 30.609375 56 
" id="DejaVuSans-6f"/>
    </defs>
    <g transform="translate(769.04325 86.35)scale(0.144 -0.144)">
     <use xlink:href="#DejaVuSans-53"/>
     <use x="63.4765625" xlink:href="#DejaVuSans-61"/>
     <use x="124.755859375" xlink:href="#DejaVuSans-6d"/>
     <use x="222.16796875" xlink:href="#DejaVuSans-70"/>
     <use x="285.64453125" xlink:href="#DejaVuSans-6c"/>
     <use x="313.427734375" xlink:href="#DejaVuSans-65"/>
     <use x="374.951171875" xlink:href="#DejaVuSans-20"/>
     <use x="406.73828125" xlink:href="#DejaVuSans-6f"/>
     <use x="467.919921875" xlink:href="#DejaVuSans-66"/>
     <use x="503.125" xlink:href="#DejaVuSans-20"/>
     <use x="534.912109375" xlink:href="#DejaVuSans-70"/>
     <use x="598.388671875" xlink:href="#DejaVuSans-6f"/>
     <use x="659.5703125" xlink:href="#DejaVuSans-72"/>
     <use x="700.68359375" xlink:href="#DejaVuSans-74"/>
     <use x="739.892578125" xlink:href="#DejaVuSans-66"/>
     <use x="775.09765625" xlink:href="#DejaVuSans-6f"/>
     <use x="836.279296875" xlink:href="#DejaVuSans-6c"/>
     <use x="864.0625" xlink:href="#DejaVuSans-69"/>
     <use x="891.845703125" xlink:href="#DejaVuSans-6f"/>
     <use x="953.02734375" xlink:href="#DejaVuSans-73"/>
     <use x="1005.126953125" xlink:href="#DejaVuSans-28"/>
     <use x="1044.140625" xlink:href="#DejaVuSans-33"/>
     <use x="1107.763671875" xlink:href="#DejaVuSans-36"/>
     <use x="1171.38671875" xlink:href="#DejaVuSans-20"/>
     <use x="1203.173828125" xlink:href="#DejaVuSans-6d"/>
     <use x="1300.5859375" xlink:href="#DejaVuSans-6f"/>
     <use x="1361.767578125" xlink:href="#DejaVuSans-6e"/>
     <use x="1425.146484375" xlink:href="#DejaVuSans-74"/>
     <use x="1464.35546875" xlink:href="#DejaVuSans-68"/>
     <use x="1527.734375" xlink:href="#DejaVuSans-73"/>
     <use x="1579.833984375" xlink:href="#DejaVuSans-29"/>
    </g>
   </g>
   <g id="legend_1">
    <g id="patch_7">
     <path d="M 223.2 314.235 
L 331.91775 314.235 
L 331.91775 98.55 
L 223.2 98.55 
z
" style="fill:#ffffff;stroke:#000000;stroke-linejoin:miter;"/>
    </g>
    <g id="patch_8">
     <path d="M 228.96 115.25175 
L 257.76 115.25175 
L 257.76 105.17175 
L 228.96 105.17175 
z
" style="fill:#ff0000;stroke:#000000;stroke-linejoin:miter;"/>
    </g>
    <g id="text_14">
     <!-- ING042 -->
     <defs>
      <path d="M 9.8125 72.90625 
L 19.671875 72.90625 
L 19.671875 0 
L 9.8125 0 
z
" id="DejaVuSans-49"/>
      <path d="M 9.8125 72.90625 
L 23.09375 72.90625 
L 55.421875 11.921875 
L 55.421875 72.90625 
L 64.984375 72.90625 
L 64.984375 0 
L 51.703125 0 
L 19.390625 60.984375 
L 19.390625 0 
L 9.8125 0 
z
" id="DejaVuSans-4e"/>
      <path d="M 59.515625 10.40625 
L 59.515625 29.984375 
L 43.40625 29.984375 
L 43.40625 38.09375 
L 69.28125 38.09375 
L 69.28125 6.78125 
Q 63.578125 2.734375 56.6875 0.65625 
Q 49.8125 -1.421875 42 -1.421875 
Q 24.90625 -1.421875 15.25 8.5625 
Q 5.609375 18.5625 5.609375 36.375 
Q 5.609375 54.25 15.25 64.234375 
Q 24.90625 74.21875 42 74.21875 
Q 49.125 74.21875 55.546875 72.453125 
Q 61.96875 70.703125 67.390625 67.28125 
L 67.390625 56.78125 
Q 61.921875 61.421875 55.765625 63.765625 
Q 49.609375 66.109375 42.828125 66.109375 
Q 29.4375 66.109375 22.71875 58.640625 
Q 16.015625 51.171875 16.015625 36.375 
Q 16.015625 21.625 22.71875 14.15625 
Q 29.4375 6.6875 42.828125 6.6875 
Q 48.046875 6.6875 52.140625 7.59375 
Q 56.25 8.5 59.515625 10.40625 
" id="DejaVuSans-47"/>
     </defs>
     <g transform="translate(269.28 115.25175)scale(0.144 -0.144)">
      <use xlink:href="#DejaVuSans-49"/>
      <use x="29.4921875" xlink:href="#DejaVuSans-4e"/>
      <use x="104.296875" xlink:href="#DejaVuSans-47"/>
      <use x="181.787109375" xlink:href="#DejaVuSans-30"/>
      <use x="245.41015625" xlink:href="#DejaVuSans-34"/>
      <use x="309.033203125" xlink:href="#DejaVuSans-32"/>
     </g>
    </g>
    <g id="patch_9">
     <path d="M 228.96 136.38825 
L 257.76 136.38825 
L 257.76 126.30825 
L 228.96 126.30825 
z
" style="fill:#008000;stroke:#000000;stroke-linejoin:miter;"/>
    </g>
    <g id="text_15">
     <!-- ING005 -->
     <g transform="translate(269.28 136.38825)scale(0.144 -0.144)">
      <use xlink:href="#DejaVuSans-49"/>
      <use x="29.4921875" xlink:href="#DejaVuSans-4e"/>
      <use x="104.296875" xlink:href="#DejaVuSans-47"/>
      <use x="181.787109375" xlink:href="#DejaVuSans-30"/>
      <use x="245.41015625" xlink:href="#DejaVuSans-30"/>
      <use x="309.033203125" xlink:href="#DejaVuSans-35"/>
     </g>
    </g>
    <g id="patch_10">
     <path d="M 228.96 157.52475 
L 257.76 157.52475 
L 257.76 147.44475 
L 228.96 147.44475 
z
" style="fill:#0000ff;stroke:#000000;stroke-linejoin:miter;"/>
    </g>
    <g id="text_16">
     <!-- ING006 -->
     <g transform="translate(269.28 157.52475)scale(0.144 -0.144)">
      <use xlink:href="#DejaVuSans-49"/>
      <use x="29.4921875" xlink:href="#DejaVuSans-4e"/>
      <use x="104.296875" xlink:href="#DejaVuSans-47"/>
      <use x="181.787109375" xlink:href="#DejaVuSans-30"/>
      <use x="245.41015625" xlink:href="#DejaVuSans-30"/>
      <use x="309.033203125" xlink:href="#DejaVuSans-36"/>
     </g>
    </g>
    <g id="patch_11">
     <path d="M 228.96 178.66125 
L 257.76 178.66125 
L 257.76 168.58125 
L 228.96 168.58125 
z
" style="stroke:#000000;stroke-linejoin:miter;"/>
    </g>
    <g id="text_17">
     <!-- AIG019 -->
     <defs>
      <path d="M 10.984375 1.515625 
L 10.984375 10.5 
Q 14.703125 8.734375 18.5 7.8125 
Q 22.3125 6.890625 25.984375 6.890625 
Q 35.75 6.890625 40.890625 13.453125 
Q 46.046875 20.015625 46.78125 33.40625 
Q 43.953125 29.203125 39.59375 26.953125 
Q 35.25 24.703125 29.984375 24.703125 
Q 19.046875 24.703125 12.671875 31.3125 
Q 6.296875 37.9375 6.296875 49.421875 
Q 6.296875 60.640625 12.9375 67.421875 
Q 19.578125 74.21875 30.609375 74.21875 
Q 43.265625 74.21875 49.921875 64.515625 
Q 56.59375 54.828125 56.59375 36.375 
Q 56.59375 19.140625 48.40625 8.859375 
Q 40.234375 -1.421875 26.421875 -1.421875 
Q 22.703125 -1.421875 18.890625 -0.6875 
Q 15.09375 0.046875 10.984375 1.515625 
M 30.609375 32.421875 
Q 37.25 32.421875 41.125 36.953125 
Q 45.015625 41.5 45.015625 49.421875 
Q 45.015625 57.28125 41.125 61.84375 
Q 37.25 66.40625 30.609375 66.40625 
Q 23.96875 66.40625 20.09375 61.84375 
Q 16.21875 57.28125 16.21875 49.421875 
Q 16.21875 41.5 20.09375 36.953125 
Q 23.96875 32.421875 30.609375 32.421875 
" id="DejaVuSans-39"/>
      <path d="M 34.1875 63.1875 
L 20.796875 26.90625 
L 47.609375 26.90625 
z
M 28.609375 72.90625 
L 39.796875 72.90625 
L 67.578125 0 
L 57.328125 0 
L 50.6875 18.703125 
L 17.828125 18.703125 
L 11.1875 0 
L 0.78125 0 
z
" id="DejaVuSans-41"/>
     </defs>
     <g transform="translate(269.28 178.66125)scale(0.144 -0.144)">
      <use xlink:href="#DejaVuSans-41"/>
      <use x="68.408203125" xlink:href="#DejaVuSans-49"/>
      <use x="97.900390625" xlink:href="#DejaVuSans-47"/>
      <use x="175.390625" xlink:href="#DejaVuSans-30"/>
      <use x="239.013671875" xlink:href="#DejaVuSans-31"/>
      <use x="302.63671875" xlink:href="#DejaVuSans-39"/>
     </g>
    </g>
    <g id="patch_12">
     <path d="M 228.96 199.79775 
L 257.76 199.79775 
L 257.76 189.71775 
L 228.96 189.71775 
z
" style="fill:#bfbf00;stroke:#000000;stroke-linejoin:miter;"/>
    </g>
    <g id="text_18">
     <!-- BPH023 -->
     <defs>
      <path d="M 19.671875 64.796875 
L 19.671875 37.40625 
L 32.078125 37.40625 
Q 38.96875 37.40625 42.71875 40.96875 
Q 46.484375 44.53125 46.484375 51.125 
Q 46.484375 57.671875 42.71875 61.234375 
Q 38.96875 64.796875 32.078125 64.796875 
z
M 9.8125 72.90625 
L 32.078125 72.90625 
Q 44.34375 72.90625 50.609375 67.359375 
Q 56.890625 61.8125 56.890625 51.125 
Q 56.890625 40.328125 50.609375 34.8125 
Q 44.34375 29.296875 32.078125 29.296875 
L 19.671875 29.296875 
L 19.671875 0 
L 9.8125 0 
z
" id="DejaVuSans-50"/>
      <path d="M 9.8125 72.90625 
L 19.671875 72.90625 
L 19.671875 43.015625 
L 55.515625 43.015625 
L 55.515625 72.90625 
L 65.375 72.90625 
L 65.375 0 
L 55.515625 0 
L 55.515625 34.71875 
L 19.671875 34.71875 
L 19.671875 0 
L 9.8125 0 
z
" id="DejaVuSans-48"/>
      <path d="M 19.671875 34.8125 
L 19.671875 8.109375 
L 35.5 8.109375 
Q 43.453125 8.109375 47.28125 11.40625 
Q 51.125 14.703125 51.125 21.484375 
Q 51.125 28.328125 47.28125 31.5625 
Q 43.453125 34.8125 35.5 34.8125 
z
M 19.671875 64.796875 
L 19.671875 42.828125 
L 34.28125 42.828125 
Q 41.5 42.828125 45.03125 45.53125 
Q 48.578125 48.25 48.578125 53.8125 
Q 48.578125 59.328125 45.03125 62.0625 
Q 41.5 64.796875 34.28125 64.796875 
z
M 9.8125 72.90625 
L 35.015625 72.90625 
Q 46.296875 72.90625 52.390625 68.21875 
Q 58.5 63.53125 58.5 54.890625 
Q 58.5 48.1875 55.375 44.234375 
Q 52.25 40.28125 46.1875 39.3125 
Q 53.46875 37.75 57.5 32.78125 
Q 61.53125 27.828125 61.53125 20.40625 
Q 61.53125 10.640625 54.890625 5.3125 
Q 48.25 0 35.984375 0 
L 9.8125 0 
z
" id="DejaVuSans-42"/>
     </defs>
     <g transform="translate(269.28 199.79775)scale(0.144 -0.144)">
      <use xlink:href="#DejaVuSans-42"/>
      <use x="68.603515625" xlink:href="#DejaVuSans-50"/>
      <use x="128.90625" xlink:href="#DejaVuSans-48"/>
      <use x="204.1015625" xlink:href="#DejaVuSans-30"/>
      <use x="267.724609375" xlink:href="#DejaVuSans-32"/>
      <use x="331.34765625" xlink:href="#DejaVuSans-33"/>
     </g>
    </g>
    <g id="patch_13">
     <path d="M 228.96 220.93425 
L 257.76 220.93425 
L 257.76 210.85425 
L 228.96 210.85425 
z
" style="fill:#bf00bf;stroke:#000000;stroke-linejoin:miter;"/>
    </g>
    <g id="text_19">
     <!-- ING024 -->
     <g transform="translate(269.28 220.93425)scale(0.144 -0.144)">
      <use xlink:href="#DejaVuSans-49"/>
      <use x="29.4921875" xlink:href="#DejaVuSans-4e"/>
      <use x="104.296875" xlink:href="#DejaVuSans-47"/>
      <use x="181.787109375" xlink:href="#DejaVuSans-30"/>
      <use x="245.41015625" xlink:href="#DejaVuSans-32"/>
      <use x="309.033203125" xlink:href="#DejaVuSans-34"/>
     </g>
    </g>
    <g id="patch_14">
     <path d="M 228.96 242.07075 
L 257.76 242.07075 
L 257.76 231.99075 
L 228.96 231.99075 
z
" style="fill:#00bfbf;stroke:#000000;stroke-linejoin:miter;"/>
    </g>
    <g id="text_20">
     <!-- ING004 -->
     <g transform="translate(269.28 242.07075)scale(0.144 -0.144)">
      <use xlink:href="#DejaVuSans-49"/>
      <use x="29.4921875" xlink:href="#DejaVuSans-4e"/>
      <use x="104.296875" xlink:href="#DejaVuSans-47"/>
      <use x="181.787109375" xlink:href="#DejaVuSans-30"/>
      <use x="245.41015625" xlink:href="#DejaVuSans-30"/>
      <use x="309.033203125" xlink:href="#DejaVuSans-34"/>
     </g>
    </g>
    <g id="patch_15">
     <path d="M 228.96 263.20725 
L 257.76 263.20725 
L 257.76 253.12725 
L 228.96 253.12725 
z
" style="fill:#ff0000;stroke:#000000;stroke-linejoin:miter;"/>
    </g>
    <g id="text_21">
     <!-- ALT993 -->
     <defs>
      <path d="M 9.8125 72.90625 
L 19.671875 72.90625 
L 19.671875 8.296875 
L 55.171875 8.296875 
L 55.171875 0 
L 9.8125 0 
z
" id="DejaVuSans-4c"/>
      <path d="M -0.296875 72.90625 
L 61.375 72.90625 
L 61.375 64.59375 
L 35.5 64.59375 
L 35.5 0 
L 25.59375 0 
L 25.59375 64.59375 
L -0.296875 64.59375 
z
" id="DejaVuSans-54"/>
     </defs>
     <g transform="translate(269.28 263.20725)scale(0.144 -0.144)">
      <use xlink:href="#DejaVuSans-41"/>
      <use x="68.408203125" xlink:href="#DejaVuSans-4c"/>
      <use x="123.91796875" xlink:href="#DejaVuSans-54"/>
      <use x="185.001953125" xlink:href="#DejaVuSans-39"/>
      <use x="248.625" xlink:href="#DejaVuSans-39"/>
      <use x="312.248046875" xlink:href="#DejaVuSans-33"/>
     </g>
    </g>
    <g id="patch_16">
     <path d="M 228.96 284.34375 
L 257.76 284.34375 
L 257.76 274.26375 
L 228.96 274.26375 
z
" style="fill:#008000;stroke:#000000;stroke-linejoin:miter;"/>
    </g>
    <g id="text_22">
     <!-- AIG014 -->
     <g transform="translate(269.28 284.34375)scale(0.144 -0.144)">
      <use xlink:href="#DejaVuSans-41"/>
      <use x="68.408203125" xlink:href="#DejaVuSans-49"/>
      <use x="97.900390625" xlink:href="#DejaVuSans-47"/>
      <use x="175.390625" xlink:href="#DejaVuSans-30"/>
      <use x="239.013671875" xlink:href="#DejaVuSans-31"/>
      <use x="302.63671875" xlink:href="#DejaVuSans-34"/>
     </g>
    </g>
    <g id="patch_17">
     <path d="M 228.96 305.48025 
L 257.76 305.48025 
L 257.76 295.40025 
L 228.96 295.40025 
z
" style="fill:#0000ff;stroke:#000000;stroke-linejoin:miter;"/>
    </g>
    <g id="text_23">
     <!-- ING025 -->
     <g transform="translate(269.28 305.48025)scale(0.144 -0.144)">
      <use xlink:href="#DejaVuSans-49"/>
      <use x="29.4921875" xlink:href="#DejaVuSans-4e"/>
      <use x="104.296875" xlink:href="#DejaVuSans-47"/>
      <use x="181.787109375" xlink:href="#DejaVuSans-30"/>
      <use x="245.41015625" xlink:href="#DejaVuSans-32"/>
      <use x="309.033203125" xlink:href="#DejaVuSans-35"/>
     </g>
    </g>
   </g>
  </g>
 </g>
 <defs>
  <clipPath id="p766b7bdba0">
   <rect height="730.8" width="1339.2" x="216.0" y="91.35"/>
  </clipPath>
 </defs>
</svg>
