<?xml version="1.0" standalone="no"?>
<!DOCTYPE svg PUBLIC "-//W3C//DTD SVG 20010904//EN"
 "http://www.w3.org/TR/2001/REC-SVG-20010904/DTD/svg10.dtd">
<svg version="1.0" xmlns="http://www.w3.org/2000/svg"
 width="1556.000000pt" height="1556.000000pt" viewBox="0 0 1556.000000 1556.000000"
 preserveAspectRatio="xMidYMid meet">
<metadata>
Created by potrace 1.14, written by Peter Selinger 2001-2017
</metadata>
<g transform="translate(0.000000,1556.000000) scale(0.100000,-0.100000)"
fill="#000000" stroke="none">
<path d="M7860 15204 c-34 -4 -193 -29 -255 -40 -55 -10 -125 -36 -119 -45 3
-5 -1 -6 -9 -4 -7 3 -40 -6 -73 -21 -59 -26 -105 -46 -114 -49 -44 -15 -107
-62 -102 -77 1 -5 -2 -7 -8 -3 -14 8 -100 -61 -100 -80 0 -8 -6 -12 -13 -9 -7
2 -22 -6 -33 -18 -19 -23 -19 -23 1 -8 11 8 -10 -18 -47 -57 -38 -39 -68 -75
-68 -80 -1 -4 -21 -30 -46 -58 -38 -42 -62 -78 -69 -105 0 -3 -7 -16 -15 -30
-7 -14 -13 -27 -13 -30 0 -3 -8 -23 -18 -45 -10 -22 -20 -51 -22 -65 -2 -14
-6 -32 -9 -40 -3 -8 -13 -49 -23 -90 -10 -41 -21 -79 -24 -85 -3 -5 -7 -26 -8
-45 -2 -36 -7 -68 -17 -117 -3 -15 -8 -50 -12 -78 -3 -27 -8 -52 -9 -55 -2 -3
-8 -58 -15 -124 -6 -65 -13 -126 -15 -135 -8 -40 -24 -174 -29 -236 -1 -22 -6
-59 -11 -82 -7 -43 -8 -43 -50 -43 -23 0 -64 -7 -91 -15 -27 -8 -50 -15 -52
-15 -1 0 -16 -7 -32 -15 -17 -9 -30 -12 -30 -9 0 4 -8 0 -17 -8 -40 -34 -83
-43 -230 -51 -23 -1 -48 -8 -55 -15 -6 -6 -17 -12 -24 -12 -6 0 -32 -24 -58
-52 -71 -81 -76 -87 -76 -100 0 -6 -6 -19 -14 -27 -8 -9 -17 -27 -20 -41 -3
-14 -13 -56 -22 -95 -21 -93 -19 -240 4 -254 5 -3 37 -48 70 -99 65 -100 149
-200 275 -326 l79 -78 -29 -30 c-16 -16 -36 -30 -45 -32 -8 -1 -27 -10 -42
-19 -32 -21 -49 -17 -96 23 -19 16 -39 30 -45 30 -5 0 -23 7 -39 15 -15 8 -32
12 -37 9 -6 -3 -16 0 -24 6 -10 8 -19 9 -27 3 -7 -6 -35 -13 -63 -16 -50 -7
-88 -14 -92 -17 -2 -2 -6 -3 -10 -4 -5 -1 -24 -10 -43 -18 -70 -32 -105 -47
-114 -46 -5 0 -12 -4 -15 -9 -7 -9 -39 -28 -86 -52 -48 -23 -133 -89 -212
-162 -17 -16 -36 -29 -42 -29 -6 0 -11 -6 -11 -12 0 -15 -47 -110 -58 -118
-13 -8 -112 -174 -112 -187 0 -6 -7 -13 -15 -17 -8 -3 -14 -9 -13 -13 4 -14
-13 -53 -23 -53 -5 0 -9 -8 -9 -18 0 -10 -8 -34 -19 -55 -16 -31 -51 -110 -56
-127 -4 -12 -18 -47 -30 -75 -8 -16 -13 -32 -13 -35 1 -3 -5 -16 -12 -30 -8
-14 -15 -29 -16 -35 -2 -5 -15 -39 -30 -74 -14 -36 -27 -70 -28 -75 -8 -39
-32 -104 -43 -117 -7 -8 -13 -19 -13 -22 0 -4 -21 -41 -46 -83 -25 -42 -54
-94 -65 -117 -10 -23 -63 -89 -119 -147 -55 -58 -103 -113 -106 -122 -3 -10
-9 -18 -14 -18 -8 0 -20 -27 -19 -43 0 -5 -9 -17 -20 -26 -11 -10 -22 -27 -24
-37 -2 -10 -9 -31 -15 -45 -17 -42 -25 -97 -17 -116 4 -10 7 -34 8 -53 0 -19
5 -44 11 -55 11 -21 13 -27 15 -49 0 -8 17 -33 37 -57 19 -24 46 -63 59 -88
31 -62 93 -123 146 -145 24 -10 55 -23 69 -29 14 -6 29 -10 34 -8 4 1 13 -2
20 -7 6 -6 44 -12 84 -16 40 -3 78 -8 83 -12 6 -3 97 -6 201 -6 150 0 192 3
199 13 5 8 9 12 9 9 1 -3 3 -52 6 -109 2 -57 9 -110 14 -116 6 -7 12 -31 14
-54 2 -24 11 -50 20 -60 9 -10 16 -21 16 -25 0 -24 98 -218 126 -251 23 -27
23 -29 10 -123 -2 -9 4 -23 13 -29 12 -10 13 -15 4 -21 -9 -5 -11 -27 -8 -67
2 -32 7 -138 10 -235 6 -168 6 -176 -14 -202 -12 -14 -19 -33 -16 -40 3 -8 -3
-24 -14 -37 -11 -12 -18 -31 -16 -42 2 -11 -7 -31 -22 -47 -25 -27 -63 -97
-63 -116 0 -9 -108 -176 -121 -186 -3 -3 -14 -22 -23 -42 -27 -56 -55 -70
-147 -71 -43 0 -79 -3 -79 -7 0 -4 -7 -7 -15 -8 -8 -1 -22 -3 -30 -4 -8 -1
-16 -6 -18 -12 -3 -6 -35 -13 -73 -14 -38 -2 -74 -8 -80 -13 -6 -5 -19 -10
-30 -12 -22 -5 -30 -7 -99 -31 -27 -10 -63 -20 -80 -23 -38 -7 -123 -61 -130
-82 -3 -9 -17 -24 -33 -33 -15 -9 -42 -30 -60 -47 -17 -17 -36 -31 -42 -31 -9
0 -14 -21 -11 -42 0 -4 -8 -10 -19 -13 -10 -3 -22 -15 -25 -26 -4 -10 -10 -19
-14 -19 -4 0 -30 -23 -57 -51 -102 -106 -179 -179 -190 -179 -7 0 -14 -8 -18
-17 -9 -26 -90 -147 -112 -168 -22 -21 -44 -65 -44 -90 0 -15 -11 -36 -25 -49
-13 -13 -26 -33 -28 -44 -2 -12 -6 -25 -10 -28 -4 -4 -23 -41 -43 -83 -20 -42
-41 -82 -47 -90 -6 -7 -12 -18 -13 -25 -5 -26 -65 -146 -73 -146 -6 0 -9 -8
-8 -18 1 -21 -22 -82 -32 -82 -3 0 -7 -13 -7 -28 -2 -34 -32 -84 -45 -76 -5 3
-9 2 -8 -3 3 -19 -2 -34 -10 -29 -4 3 -16 -18 -25 -46 -11 -35 -13 -54 -6 -58
7 -4 3 -16 -10 -32 -11 -15 -20 -35 -20 -45 0 -10 -5 -24 -11 -30 -6 -6 -12
-26 -15 -44 -3 -19 -8 -41 -11 -49 -3 -8 -7 -21 -9 -29 -1 -8 -23 -35 -47 -60
-97 -100 -117 -125 -117 -145 0 -12 -4 -26 -9 -32 -6 -5 -12 -22 -15 -39 -4
-20 -28 -52 -73 -95 -85 -82 -185 -213 -187 -245 0 -14 -3 -25 -6 -25 -5 0
-26 -40 -49 -90 -4 -8 -6 -28 -6 -45 1 -17 -6 -35 -15 -42 -29 -21 -69 -87
-73 -123 -3 -19 -6 -35 -7 -35 -3 0 -10 -42 -12 -82 -2 -24 -7 -43 -11 -43
-13 0 -4 -201 9 -230 30 -63 53 -117 56 -130 4 -20 69 -59 113 -67 10 -2 28
-12 40 -21 47 -42 69 -49 172 -51 94 -2 107 0 146 24 24 14 51 25 60 25 8 0
17 5 19 11 2 5 18 12 37 15 38 6 42 9 115 84 144 146 182 198 245 325 40 83
55 118 56 132 0 6 11 23 24 37 14 14 22 26 19 26 -3 0 -1 19 6 43 7 23 12 49
11 57 0 8 7 26 17 39 12 15 18 41 18 72 0 26 4 59 10 74 5 14 12 45 14 68 2
23 11 76 20 117 9 41 19 90 22 109 10 61 12 67 33 102 12 19 21 42 21 52 0 9
5 17 10 17 6 0 10 5 10 11 0 7 17 39 39 73 35 57 51 91 57 125 1 7 12 22 23
32 12 11 21 24 21 29 0 5 6 15 14 23 8 8 40 63 71 123 31 60 61 115 67 122 6
6 7 12 3 12 -4 0 14 23 39 51 26 29 46 59 44 68 -5 34 39 128 71 151 22 16
102 126 107 148 4 15 15 36 26 48 11 12 16 28 12 37 -6 17 29 56 52 57 5 0 28
13 50 30 l41 29 -7 -42 c-4 -23 -19 -73 -33 -110 -15 -38 -28 -82 -29 -98 -1
-16 -5 -29 -9 -29 -4 0 -10 -24 -14 -52 -4 -29 -13 -70 -21 -90 -7 -21 -11
-38 -7 -38 3 0 -1 -10 -9 -22 -8 -13 -21 -54 -27 -93 -7 -38 -17 -83 -21 -100
-11 -37 -17 -80 -25 -165 -6 -63 -11 -102 -15 -107 -2 -2 -3 -6 -4 -10 -1 -5
-5 -17 -9 -28 -12 -39 -25 -109 -33 -190 -3 -27 -8 -57 -11 -65 -16 -41 -16
-38 -9 -150 10 -167 16 -235 22 -260 3 -14 8 -36 11 -50 2 -13 8 -29 13 -35 5
-6 11 -24 14 -40 2 -17 5 -30 6 -30 1 0 4 -13 6 -30 8 -73 14 -103 33 -152 11
-29 17 -53 15 -53 -3 0 1 -10 8 -22 7 -13 18 -45 26 -73 7 -27 14 -54 15 -60
7 -25 33 -75 39 -75 4 0 5 -9 3 -19 -2 -10 4 -36 14 -58 39 -84 53 -119 56
-134 2 -10 16 -36 30 -60 15 -23 28 -47 29 -53 1 -6 5 -17 9 -23 5 -7 6 -13 2
-13 -3 0 5 -17 18 -38 13 -20 30 -55 37 -77 7 -22 18 -47 25 -55 7 -8 15 -28
19 -44 4 -17 16 -42 27 -57 10 -15 19 -34 19 -42 0 -9 4 -17 9 -19 6 -1 12
-15 15 -30 2 -14 23 -44 45 -66 23 -22 41 -49 41 -61 0 -12 12 -35 28 -52 15
-17 27 -34 27 -39 0 -4 11 -17 25 -29 14 -11 22 -20 18 -21 -5 0 1 -9 12 -20
17 -17 25 -43 22 -71 -1 -3 26 -32 59 -65 32 -32 59 -62 59 -65 0 -4 -39 -47
-87 -96 -155 -157 -201 -216 -198 -253 0 -8 -9 -32 -22 -52 -13 -21 -23 -48
-23 -62 0 -13 -7 -29 -15 -36 -8 -7 -15 -28 -15 -47 0 -19 -12 -55 -26 -81
-18 -33 -27 -63 -28 -102 -1 -30 -5 -60 -8 -66 -9 -13 -16 -54 -23 -126 -7
-67 -10 -81 -30 -138 -30 -81 -21 -354 12 -415 6 -12 14 -48 18 -80 8 -79 33
-154 62 -186 13 -14 23 -30 23 -36 0 -6 6 -16 13 -22 8 -6 14 -29 15 -50 2
-43 48 -131 69 -131 7 0 45 -32 85 -71 89 -86 120 -109 148 -109 12 0 37 -12
55 -26 33 -25 65 -34 132 -38 18 -1 43 -12 58 -26 14 -13 38 -25 53 -26 15 -1
41 -5 57 -9 50 -12 149 -13 163 -2 6 5 12 7 12 3 0 -4 14 0 30 9 17 9 30 20
30 25 0 6 3 9 8 8 8 -3 68 40 117 84 56 49 74 63 130 98 31 19 76 55 98 80 88
96 109 122 111 137 1 8 15 30 30 50 15 19 29 40 30 48 1 7 7 19 13 26 6 8 14
25 18 39 4 14 14 33 23 43 8 9 13 20 9 23 -3 3 4 22 15 42 11 20 22 59 25 87
2 27 10 68 18 90 8 22 16 88 18 146 3 58 9 114 14 125 5 10 9 28 9 39 -1 11
16 38 37 60 52 55 97 115 98 131 1 8 3 17 4 22 2 4 6 17 10 29 9 28 19 30 153
28 107 -2 114 -3 140 -29 18 -16 39 -26 59 -26 17 0 41 -9 55 -19 13 -11 42
-22 64 -26 21 -4 46 -9 54 -12 33 -13 50 -15 175 -20 94 -4 135 -9 146 -20 10
-8 43 -18 75 -23 33 -4 71 -11 87 -15 l27 -7 -23 -22 c-32 -28 -87 -111 -87
-129 0 -9 -17 -37 -38 -64 -20 -26 -44 -64 -53 -83 -58 -124 -68 -151 -64
-171 2 -12 1 -27 -3 -33 -3 -6 -7 -58 -8 -116 0 -58 -6 -125 -13 -150 -15 -50
-11 -217 5 -228 5 -4 9 -18 9 -32 -1 -14 5 -37 12 -52 7 -15 16 -51 21 -80 6
-45 11 -53 29 -54 12 -1 40 -20 62 -43 22 -22 44 -41 50 -41 6 0 16 -10 22
-22 13 -25 44 -58 55 -58 3 0 19 -9 35 -21 16 -11 37 -22 47 -24 9 -2 18 -4
20 -5 1 -2 11 -3 21 -4 11 0 23 -4 27 -9 4 -4 18 -7 30 -7 13 0 26 -5 29 -10
3 -6 15 -10 26 -10 10 0 19 -4 19 -10 0 -5 6 -10 13 -10 19 0 97 -39 133 -66
17 -13 40 -24 50 -24 11 0 25 -5 32 -12 7 -7 12 -8 12 -4 0 5 11 1 25 -8 14
-9 29 -14 34 -12 5 3 14 -1 21 -9 11 -14 69 -37 81 -32 3 1 14 -5 24 -13 13
-11 51 -15 158 -16 119 -1 144 1 171 16 17 10 51 22 76 25 25 4 51 10 58 14
35 20 172 166 191 204 11 23 34 65 50 92 17 28 30 60 31 71 0 12 7 27 15 34 8
7 15 20 15 29 0 9 5 22 12 29 7 7 8 12 3 12 -4 0 -1 8 8 18 13 14 45 106 51
146 1 6 4 16 8 21 7 12 17 92 23 179 2 32 8 63 14 69 6 6 11 18 11 27 0 9 12
40 26 70 35 74 37 81 35 199 -2 119 8 141 66 141 18 0 52 9 76 19 23 11 56 22
72 25 94 17 227 60 284 92 25 14 69 39 98 55 64 35 83 50 153 120 30 30 71 66
90 79 37 26 100 90 100 101 0 5 25 42 56 83 30 41 55 78 54 82 -1 4 2 10 8 13
10 6 102 192 102 206 0 4 12 32 26 62 20 44 33 58 67 72 23 10 67 43 99 72 31
30 80 75 110 101 158 140 168 150 168 179 0 16 4 29 9 29 5 0 15 15 21 34 6
19 38 63 70 99 33 36 60 69 60 75 0 5 10 22 22 38 12 15 23 33 24 40 3 19 37
64 78 103 20 19 36 40 36 46 0 6 13 24 30 40 16 16 28 31 25 33 -2 3 1 17 9
31 7 14 24 49 37 76 13 28 30 58 38 67 8 10 15 35 16 55 2 44 22 136 38 173 6
14 14 48 18 75 4 28 10 66 14 85 4 19 8 40 9 45 1 6 5 16 10 23 4 7 6 16 3 19
-3 3 -2 15 2 27 5 12 11 41 15 66 7 51 13 84 20 108 3 9 7 39 11 66 3 27 8 52
10 56 2 3 5 194 7 424 3 452 -1 409 53 541 5 11 9 31 10 45 2 41 17 100 24
100 4 0 7 15 6 33 -1 18 4 55 10 81 16 61 13 419 -4 459 -6 16 -9 32 -6 37 3
5 1 11 -5 15 -5 3 -10 21 -10 40 0 19 -4 37 -10 40 -5 3 -10 16 -10 29 0 12
-4 26 -9 32 -5 5 -18 32 -29 59 -23 59 -150 251 -163 247 -5 -1 -21 16 -37 38
-15 21 -31 39 -35 40 -5 0 -29 12 -55 28 -53 31 -112 53 -123 46 -4 -2 -10 0
-14 6 -3 5 -14 10 -24 10 -19 0 -41 20 -45 42 -2 7 -6 24 -9 38 -3 14 -9 42
-12 62 -4 28 -11 37 -28 40 -12 2 -22 8 -23 13 -5 44 -21 79 -42 93 -34 24
-82 74 -77 82 2 3 -6 22 -18 41 -11 19 -21 37 -22 42 0 4 -12 23 -27 41 -16
19 -28 47 -28 61 0 30 -28 95 -40 95 -5 0 -11 13 -15 30 -4 16 -10 32 -15 35
-9 6 -75 120 -69 120 2 0 -6 15 -19 32 -13 18 -21 37 -18 41 3 5 -1 20 -9 35
-8 15 -12 27 -9 27 2 0 -9 19 -26 42 -16 22 -30 47 -30 53 0 7 -11 32 -25 56
-17 31 -21 49 -15 59 5 8 10 38 10 67 0 40 9 72 40 137 23 46 51 91 64 100 17
10 23 22 20 42 -1 17 7 39 22 59 13 18 24 41 24 53 0 11 5 24 10 27 6 4 8 15
5 24 -3 10 3 29 13 42 11 13 22 36 26 51 3 15 10 37 15 50 5 13 9 28 11 33 1
6 9 18 18 28 9 10 17 28 19 40 1 12 6 38 9 57 4 19 8 40 8 45 1 6 12 42 26 80
13 39 23 74 22 79 -2 4 3 24 9 44 6 20 13 48 14 63 1 15 9 36 17 48 14 20 16
108 3 165 -2 10 4 51 14 91 10 40 17 88 15 107 -3 18 -6 67 -8 109 -2 41 -8
84 -14 95 -5 10 -13 57 -16 104 -3 47 -13 99 -20 115 -24 49 -36 88 -40 121
-1 11 -6 26 -10 33 -4 7 -8 27 -8 46 0 18 -6 36 -13 38 -6 3 -15 21 -18 40 -3
19 -14 52 -24 73 -10 22 -18 57 -18 79 0 22 -3 42 -6 45 -11 8 -13 53 -4 74
16 36 -62 216 -118 274 -35 36 -33 38 14 18 56 -24 116 -73 213 -173 92 -95
100 -108 83 -130 -9 -13 26 -73 43 -73 4 0 10 -8 14 -17 3 -10 10 -25 15 -33
5 -8 19 -37 31 -65 12 -27 29 -58 38 -68 15 -17 15 -24 -2 -90 -10 -40 -24
-83 -31 -97 -10 -21 -22 -82 -30 -160 -1 -8 -5 -22 -9 -31 -8 -18 -3 -242 6
-274 10 -35 22 -109 23 -145 1 -19 5 -42 8 -50 3 -8 8 -28 11 -45 8 -51 28
-149 34 -165 3 -8 6 -20 8 -27 1 -7 9 -26 17 -43 9 -17 19 -61 23 -98 3 -37
11 -73 17 -80 5 -7 11 -28 12 -47 2 -18 15 -64 29 -102 17 -46 27 -90 27 -131
1 -34 5 -62 10 -62 5 0 8 -3 7 -7 -4 -14 24 -118 37 -139 7 -11 27 -63 43
-115 51 -161 127 -305 201 -380 9 -8 30 -32 46 -53 89 -113 85 -111 172 -110
114 2 184 42 248 144 34 54 63 203 59 310 -10 307 -27 615 -34 615 -4 0 -10
44 -15 105 -3 36 -8 76 -11 90 -3 14 -8 46 -10 71 -2 26 -10 65 -18 87 -8 22
-12 42 -10 45 2 2 -2 17 -11 33 -9 17 -11 32 -5 38 5 5 5 17 -2 30 -7 12 -13
34 -14 50 -2 16 -6 41 -10 55 -4 14 -8 29 -9 34 -2 4 -4 9 -5 12 -3 5 -3 6
-15 50 -4 17 -16 48 -26 71 -10 22 -20 52 -23 65 -6 27 -31 98 -50 144 -38 86
-105 253 -111 275 -4 14 -11 30 -16 36 -5 6 -33 58 -62 115 -30 57 -67 124
-82 149 -16 25 -30 47 -30 50 -1 6 -37 63 -45 70 -3 3 -27 39 -55 80 -27 41
-66 93 -85 115 -41 46 -140 179 -140 189 0 3 -8 14 -17 24 -10 11 -32 36 -49
58 -71 87 -184 191 -271 249 -24 15 -43 32 -43 36 0 5 -3 8 -7 7 -15 -4 -53
13 -53 23 0 6 -4 8 -9 5 -5 -4 -11 -3 -13 1 -4 11 -115 68 -136 70 -27 3 -46
8 -57 15 -49 30 -209 44 -224 19 -9 -13 -32 -12 -43 3 -4 6 -12 5 -20 -1 -28
-23 -77 -19 -113 10 -18 15 -38 27 -42 27 -10 0 -179 182 -176 190 2 8 -33 48
-80 88 -24 20 -48 32 -67 32 -17 0 -30 5 -30 10 0 6 9 10 19 10 11 0 23 5 26
11 4 5 17 15 28 20 47 21 73 39 100 70 15 18 37 37 49 43 39 20 96 154 103
242 2 22 11 58 21 80 23 54 27 80 13 106 -7 13 -14 38 -15 56 -2 19 -8 40 -15
48 -6 8 -9 24 -6 35 3 12 -1 35 -9 50 -8 16 -17 50 -19 76 -10 93 -83 197
-179 257 -31 20 -122 33 -278 41 -36 1 -93 6 -126 10 l-61 7 6 76 c12 150 7
346 -12 487 -10 69 -15 108 -21 165 -3 30 -12 84 -20 120 -8 36 -17 81 -20
100 -10 69 -13 80 -20 92 -5 7 -8 26 -9 43 -1 16 -4 37 -7 45 -23 56 -47 142
-54 189 -3 18 -11 43 -19 54 -7 10 -11 25 -8 32 6 18 -12 50 -49 86 -17 16
-29 32 -25 35 3 3 -3 20 -12 37 -48 84 -57 97 -63 97 -10 0 -68 57 -68 67 0 7
-97 103 -133 130 -8 6 -17 9 -21 6 -3 -3 -8 2 -12 11 -3 9 -11 16 -18 16 -6 0
-32 11 -58 25 -26 14 -71 34 -100 46 -29 11 -61 28 -70 36 -10 9 -18 13 -18
10 0 -4 -12 -2 -27 4 -16 6 -35 12 -43 15 -8 2 -42 11 -75 19 -33 9 -71 18
-85 20 -14 2 -25 4 -25 5 0 2 -37 8 -85 14 -14 2 -38 6 -55 9 -39 9 -210 15
-255 11z"/>
</g>
</svg>
