<?xml version="1.0" encoding="UTF-8"?><svg xmlns="http://www.w3.org/2000/svg" xmlns:xlink="http://www.w3.org/1999/xlink" fill-opacity="1" color-rendering="auto" color-interpolation="auto" text-rendering="auto" stroke="black" stroke-linecap="square" width="766" stroke-miterlimit="10" shape-rendering="auto" stroke-opacity="1" fill="black" stroke-dasharray="none" font-weight="normal" stroke-width="1" height="300" font-family="'Dialog'" font-style="normal" stroke-linejoin="miter" font-size="12px" stroke-dashoffset="0" image-rendering="auto">
  <!--Generated by ySVG 2.5-->
  <defs id="genericDefs"/>
  <g>
    <defs id="defs1">
      <clipPath clipPathUnits="userSpaceOnUse" id="clipPath1">
        <path d="M0 0 L766 0 L766 300 L0 300 L0 0 Z"/>
      </clipPath>
      <clipPath clipPathUnits="userSpaceOnUse" id="clipPath2">
        <path d="M433 287 L1199 287 L1199 587 L433 587 L433 287 Z"/>
      </clipPath>
      <clipPath clipPathUnits="userSpaceOnUse" id="clipPath3">
        <path d="M450 415.0469 L450 458.9531 L716 458.9531 L716 415.0469 Z"/>
      </clipPath>
      <clipPath clipPathUnits="userSpaceOnUse" id="clipPath4">
        <path d="M916 415.0469 L916 458.9531 L1182 458.9531 L1182 415.0469 Z"/>
      </clipPath>
    </defs>
    <g fill="white" text-rendering="geometricPrecision" shape-rendering="geometricPrecision" transform="translate(-433,-287)" stroke="white">
      <rect x="433" width="766" height="300" y="287" clip-path="url(#clipPath2)" stroke="none"/>
    </g>
    <g fill="rgb(253,224,150)" text-rendering="geometricPrecision" shape-rendering="geometricPrecision" transform="matrix(1,0,0,1,-433,-287)" stroke="rgb(253,224,150)">
      <circle r="135" clip-path="url(#clipPath2)" cx="583" cy="437" stroke="none"/>
      <path fill="black" d="M472.4463 418.6299 L475.8213 418.6299 L475.8213 431.7549 L472.4463 431.7549 L472.4463 418.6299 ZM488.8936 425.7549 L488.8936 431.7549 L485.7373 431.7549 L485.7373 430.7861 L485.7373 427.1611 Q485.7373 425.8955 485.6748 425.4111 Q485.6123 424.9268 485.4717 424.6924 Q485.2998 424.3955 484.9795 424.2236 Q484.6592 424.0518 484.2529 424.0518 Q483.2686 424.0518 482.7061 424.8096 Q482.1436 425.5674 482.1436 426.9111 L482.1436 431.7549 L479.0029 431.7549 L479.0029 421.9111 L482.1436 421.9111 L482.1436 423.3486 Q482.8623 422.4893 483.6592 422.083 Q484.4561 421.6768 485.4248 421.6768 Q487.1279 421.6768 488.0107 422.7236 Q488.8936 423.7705 488.8936 425.7549 ZM495.2549 419.1143 L495.2549 421.9111 L498.4893 421.9111 L498.4893 424.1611 L495.2549 424.1611 L495.2549 428.333 Q495.2549 429.0205 495.5283 429.2627 Q495.8018 429.5049 496.5986 429.5049 L498.2236 429.5049 L498.2236 431.7549 L495.5205 431.7549 Q493.6611 431.7549 492.8799 430.9736 Q492.0986 430.1924 492.0986 428.333 L492.0986 424.1611 L490.5361 424.1611 L490.5361 421.9111 L492.0986 421.9111 L492.0986 419.1143 L495.2549 419.1143 ZM510.25 426.8018 L510.25 427.708 L502.8906 427.708 Q503 428.8174 503.6875 429.3643 Q504.375 429.9111 505.6094 429.9111 Q506.5938 429.9111 507.6406 429.6221 Q508.6875 429.333 509.7812 428.7236 L509.7812 431.1611 Q508.6562 431.583 507.5469 431.7939 Q506.4375 432.0049 505.3125 432.0049 Q502.6406 432.0049 501.1641 430.6455 Q499.6875 429.2861 499.6875 426.8486 Q499.6875 424.4268 501.1406 423.0518 Q502.5938 421.6768 505.1406 421.6768 Q507.4531 421.6768 508.8516 423.0752 Q510.25 424.4736 510.25 426.8018 ZM507.0156 425.7549 Q507.0156 424.8643 506.4922 424.3174 Q505.9688 423.7705 505.125 423.7705 Q504.2031 423.7705 503.6328 424.2783 Q503.0625 424.7861 502.9219 425.7549 L507.0156 425.7549 ZM519.9424 424.5986 Q519.5205 424.3955 519.1143 424.3018 Q518.708 424.208 518.3018 424.208 Q517.083 424.208 516.4268 424.9893 Q515.7705 425.7705 515.7705 427.2236 L515.7705 431.7549 L512.6299 431.7549 L512.6299 421.9111 L515.7705 421.9111 L515.7705 423.5205 Q516.3799 422.5674 517.1689 422.1221 Q517.958 421.6768 519.0518 421.6768 Q519.208 421.6768 519.3955 421.6846 Q519.583 421.6924 519.9268 421.7393 L519.9424 424.5986 ZM531.335 426.8018 L531.335 427.708 L523.9756 427.708 Q524.085 428.8174 524.7725 429.3643 Q525.46 429.9111 526.6943 429.9111 Q527.6787 429.9111 528.7256 429.6221 Q529.7725 429.333 530.8662 428.7236 L530.8662 431.1611 Q529.7412 431.583 528.6318 431.7939 Q527.5225 432.0049 526.3975 432.0049 Q523.7256 432.0049 522.249 430.6455 Q520.7725 429.2861 520.7725 426.8486 Q520.7725 424.4268 522.2256 423.0518 Q523.6787 421.6768 526.2256 421.6768 Q528.5381 421.6768 529.9365 423.0752 Q531.335 424.4736 531.335 426.8018 ZM528.1006 425.7549 Q528.1006 424.8643 527.5771 424.3174 Q527.0537 423.7705 526.21 423.7705 Q525.2881 423.7705 524.7178 424.2783 Q524.1475 424.7861 524.0068 425.7549 L528.1006 425.7549 ZM541.4023 422.2236 L541.4023 424.6143 Q540.3867 424.1924 539.4492 423.9814 Q538.5117 423.7705 537.668 423.7705 Q536.7773 423.7705 536.3398 423.9893 Q535.9023 424.208 535.9023 424.6768 Q535.9023 425.0518 536.2383 425.2549 Q536.5742 425.458 537.418 425.5518 L537.9805 425.6299 Q540.3867 425.9424 541.2227 426.6455 Q542.0586 427.3486 542.0586 428.8486 Q542.0586 430.4268 540.9023 431.2158 Q539.7461 432.0049 537.4336 432.0049 Q536.4648 432.0049 535.4258 431.8564 Q534.3867 431.708 533.2773 431.3955 L533.2773 429.0049 Q534.2148 429.458 535.207 429.6846 Q536.1992 429.9111 537.2148 429.9111 Q538.1367 429.9111 538.6055 429.6611 Q539.0742 429.4111 539.0742 428.9111 Q539.0742 428.4893 538.7539 428.2783 Q538.4336 428.0674 537.4805 427.958 L536.918 427.8799 Q534.8242 427.6299 533.9805 426.9111 Q533.1367 426.1924 533.1367 424.7549 Q533.1367 423.1924 534.207 422.4346 Q535.2773 421.6768 537.4961 421.6768 Q538.3555 421.6768 539.3164 421.8096 Q540.2773 421.9424 541.4023 422.2236 ZM547.8662 419.1143 L547.8662 421.9111 L551.1006 421.9111 L551.1006 424.1611 L547.8662 424.1611 L547.8662 428.333 Q547.8662 429.0205 548.1396 429.2627 Q548.4131 429.5049 549.21 429.5049 L550.835 429.5049 L550.835 431.7549 L548.1318 431.7549 Q546.2725 431.7549 545.4912 430.9736 Q544.71 430.1924 544.71 428.333 L544.71 424.1611 L543.1475 424.1611 L543.1475 421.9111 L544.71 421.9111 L544.71 419.1143 L547.8662 419.1143 ZM553.0332 421.9111 L556.1738 421.9111 L556.1738 431.7549 L553.0332 431.7549 L553.0332 421.9111 ZM553.0332 418.083 L556.1738 418.083 L556.1738 420.6455 L553.0332 420.6455 L553.0332 418.083 ZM569.0938 425.7549 L569.0938 431.7549 L565.9375 431.7549 L565.9375 430.7861 L565.9375 427.1611 Q565.9375 425.8955 565.875 425.4111 Q565.8125 424.9268 565.6719 424.6924 Q565.5 424.3955 565.1797 424.2236 Q564.8594 424.0518 564.4531 424.0518 Q563.4688 424.0518 562.9062 424.8096 Q562.3438 425.5674 562.3438 426.9111 L562.3438 431.7549 L559.2031 431.7549 L559.2031 421.9111 L562.3438 421.9111 L562.3438 423.3486 Q563.0625 422.4893 563.8594 422.083 Q564.6562 421.6768 565.625 421.6768 Q567.3281 421.6768 568.2109 422.7236 Q569.0938 423.7705 569.0938 425.7549 ZM578.7051 430.083 Q578.0645 430.9424 577.2832 431.3486 Q576.502 431.7549 575.4707 431.7549 Q573.6738 431.7549 572.4941 430.333 Q571.3145 428.9111 571.3145 426.7236 Q571.3145 424.5049 572.4941 423.0986 Q573.6738 421.6924 575.4707 421.6924 Q576.502 421.6924 577.2832 422.0986 Q578.0645 422.5049 578.7051 423.3643 L578.7051 421.9111 L581.877 421.9111 L581.877 430.7549 Q581.877 433.1299 580.377 434.3877 Q578.877 435.6455 576.0332 435.6455 Q575.1113 435.6455 574.252 435.5049 Q573.3926 435.3643 572.5176 435.0674 L572.5176 432.6143 Q573.3457 433.0986 574.1348 433.3252 Q574.9238 433.5518 575.7207 433.5518 Q577.2676 433.5518 577.9863 432.8799 Q578.7051 432.208 578.7051 430.7549 L578.7051 430.083 ZM576.6426 423.958 Q575.6582 423.958 575.1113 424.6768 Q574.5645 425.3955 574.5645 426.7236 Q574.5645 428.0674 575.0957 428.7705 Q575.627 429.4736 576.6426 429.4736 Q577.627 429.4736 578.166 428.7471 Q578.7051 428.0205 578.7051 426.7236 Q578.7051 425.3955 578.166 424.6768 Q577.627 423.958 576.6426 423.958 ZM595.7939 423.958 Q594.7939 423.958 594.2549 424.7002 Q593.7158 425.4424 593.7158 426.8486 Q593.7158 428.2549 594.2549 428.9893 Q594.7939 429.7236 595.7939 429.7236 Q596.7939 429.7236 597.3252 428.9893 Q597.8564 428.2549 597.8564 426.8486 Q597.8564 425.4424 597.3252 424.7002 Q596.7939 423.958 595.7939 423.958 ZM597.8564 430.333 Q597.2158 431.208 596.4346 431.6064 Q595.6533 432.0049 594.6221 432.0049 Q592.7939 432.0049 591.6299 430.5596 Q590.4658 429.1143 590.4658 426.8486 Q590.4658 424.5674 591.6299 423.1299 Q592.7939 421.6924 594.6221 421.6924 Q595.6533 421.6924 596.4346 422.0986 Q597.2158 422.5049 597.8564 423.3643 L597.8564 421.9111 L601.0283 421.9111 L601.0283 435.5049 L597.8564 435.5049 L597.8564 430.333 ZM603.9443 427.9268 L603.9443 421.9111 L607.1162 421.9111 L607.1162 422.8955 Q607.1162 423.6924 607.1006 424.9033 Q607.085 426.1143 607.085 426.5205 Q607.085 427.708 607.1475 428.2314 Q607.21 428.7549 607.3662 428.9893 Q607.5537 429.2861 607.8662 429.458 Q608.1787 429.6299 608.585 429.6299 Q609.5693 429.6299 610.1318 428.8721 Q610.6943 428.1143 610.6943 426.7705 L610.6943 421.9111 L613.835 421.9111 L613.835 431.7549 L610.6943 431.7549 L610.6943 430.333 Q609.9756 431.1924 609.1865 431.5986 Q608.3975 432.0049 607.4287 432.0049 Q605.7256 432.0049 604.835 430.958 Q603.9443 429.9111 603.9443 427.9268 ZM626.6963 426.8018 L626.6963 427.708 L619.3369 427.708 Q619.4463 428.8174 620.1338 429.3643 Q620.8213 429.9111 622.0557 429.9111 Q623.04 429.9111 624.0869 429.6221 Q625.1338 429.333 626.2275 428.7236 L626.2275 431.1611 Q625.1025 431.583 623.9932 431.7939 Q622.8838 432.0049 621.7588 432.0049 Q619.0869 432.0049 617.6104 430.6455 Q616.1338 429.2861 616.1338 426.8486 Q616.1338 424.4268 617.5869 423.0518 Q619.04 421.6768 621.5869 421.6768 Q623.8994 421.6768 625.2979 423.0752 Q626.6963 424.4736 626.6963 426.8018 ZM623.4619 425.7549 Q623.4619 424.8643 622.9385 424.3174 Q622.415 423.7705 621.5713 423.7705 Q620.6494 423.7705 620.0791 424.2783 Q619.5088 424.7861 619.3682 425.7549 L623.4619 425.7549 ZM636.7637 422.2236 L636.7637 424.6143 Q635.748 424.1924 634.8105 423.9814 Q633.873 423.7705 633.0293 423.7705 Q632.1387 423.7705 631.7012 423.9893 Q631.2637 424.208 631.2637 424.6768 Q631.2637 425.0518 631.5996 425.2549 Q631.9355 425.458 632.7793 425.5518 L633.3418 425.6299 Q635.748 425.9424 636.584 426.6455 Q637.4199 427.3486 637.4199 428.8486 Q637.4199 430.4268 636.2637 431.2158 Q635.1074 432.0049 632.7949 432.0049 Q631.8262 432.0049 630.7871 431.8564 Q629.748 431.708 628.6387 431.3955 L628.6387 429.0049 Q629.5762 429.458 630.5684 429.6846 Q631.5605 429.9111 632.5762 429.9111 Q633.498 429.9111 633.9668 429.6611 Q634.4355 429.4111 634.4355 428.9111 Q634.4355 428.4893 634.1152 428.2783 Q633.7949 428.0674 632.8418 427.958 L632.2793 427.8799 Q630.1855 427.6299 629.3418 426.9111 Q628.498 426.1924 628.498 424.7549 Q628.498 423.1924 629.5684 422.4346 Q630.6387 421.6768 632.8574 421.6768 Q633.7168 421.6768 634.6777 421.8096 Q635.6387 421.9424 636.7637 422.2236 ZM643.2275 419.1143 L643.2275 421.9111 L646.4619 421.9111 L646.4619 424.1611 L643.2275 424.1611 L643.2275 428.333 Q643.2275 429.0205 643.501 429.2627 Q643.7744 429.5049 644.5713 429.5049 L646.1963 429.5049 L646.1963 431.7549 L643.4932 431.7549 Q641.6338 431.7549 640.8525 430.9736 Q640.0713 430.1924 640.0713 428.333 L640.0713 424.1611 L638.5088 424.1611 L638.5088 421.9111 L640.0713 421.9111 L640.0713 419.1143 L643.2275 419.1143 ZM648.3945 421.9111 L651.5352 421.9111 L651.5352 431.7549 L648.3945 431.7549 L648.3945 421.9111 ZM648.3945 418.083 L651.5352 418.083 L651.5352 420.6455 L648.3945 420.6455 L648.3945 418.083 ZM659.252 423.9268 Q658.2051 423.9268 657.6504 424.6768 Q657.0957 425.4268 657.0957 426.8486 Q657.0957 428.2549 657.6504 429.0049 Q658.2051 429.7549 659.252 429.7549 Q660.2676 429.7549 660.8145 429.0049 Q661.3613 428.2549 661.3613 426.8486 Q661.3613 425.4268 660.8145 424.6768 Q660.2676 423.9268 659.252 423.9268 ZM659.252 421.6768 Q661.7832 421.6768 663.2129 423.0439 Q664.6426 424.4111 664.6426 426.8486 Q664.6426 429.2705 663.2129 430.6377 Q661.7832 432.0049 659.252 432.0049 Q656.6895 432.0049 655.2598 430.6377 Q653.8301 429.2705 653.8301 426.8486 Q653.8301 424.4111 655.2598 423.0439 Q656.6895 421.6768 659.252 421.6768 ZM676.8213 425.7549 L676.8213 431.7549 L673.665 431.7549 L673.665 430.7861 L673.665 427.1611 Q673.665 425.8955 673.6025 425.4111 Q673.54 424.9268 673.3994 424.6924 Q673.2275 424.3955 672.9072 424.2236 Q672.5869 424.0518 672.1807 424.0518 Q671.1963 424.0518 670.6338 424.8096 Q670.0713 425.5674 670.0713 426.9111 L670.0713 431.7549 L666.9307 431.7549 L666.9307 421.9111 L670.0713 421.9111 L670.0713 423.3486 Q670.79 422.4893 671.5869 422.083 Q672.3838 421.6768 673.3525 421.6768 Q675.0557 421.6768 675.9385 422.7236 Q676.8213 423.7705 676.8213 425.7549 ZM687.4326 422.2236 L687.4326 424.6143 Q686.417 424.1924 685.4795 423.9814 Q684.542 423.7705 683.6982 423.7705 Q682.8076 423.7705 682.3701 423.9893 Q681.9326 424.208 681.9326 424.6768 Q681.9326 425.0518 682.2686 425.2549 Q682.6045 425.458 683.4482 425.5518 L684.0107 425.6299 Q686.417 425.9424 687.2529 426.6455 Q688.0889 427.3486 688.0889 428.8486 Q688.0889 430.4268 686.9326 431.2158 Q685.7764 432.0049 683.4639 432.0049 Q682.4951 432.0049 681.4561 431.8564 Q680.417 431.708 679.3076 431.3955 L679.3076 429.0049 Q680.2451 429.458 681.2373 429.6846 Q682.2295 429.9111 683.2451 429.9111 Q684.167 429.9111 684.6357 429.6611 Q685.1045 429.4111 685.1045 428.9111 Q685.1045 428.4893 684.7842 428.2783 Q684.4639 428.0674 683.5107 427.958 L682.9482 427.8799 Q680.8545 427.6299 680.0107 426.9111 Q679.167 426.1924 679.167 424.7549 Q679.167 423.1924 680.2373 422.4346 Q681.3076 421.6768 683.5264 421.6768 Q684.3857 421.6768 685.3467 421.8096 Q686.3076 421.9424 687.4326 422.2236 Z" clip-path="url(#clipPath3)" stroke="none"/>
      <path fill="black" d="M507.9702 448.2705 Q506.9858 448.2705 506.4937 448.6064 Q506.0015 448.9424 506.0015 449.5986 Q506.0015 450.1924 506.3999 450.5283 Q506.7983 450.8643 507.5015 450.8643 Q508.3921 450.8643 509.0015 450.2314 Q509.6108 449.5986 509.6108 448.6455 L509.6108 448.2705 L507.9702 448.2705 ZM512.7827 447.0986 L512.7827 452.708 L509.6108 452.708 L509.6108 451.2549 Q508.9702 452.1455 508.1812 452.5518 Q507.3921 452.958 506.2515 452.958 Q504.7358 452.958 503.7827 452.0674 Q502.8296 451.1768 502.8296 449.7549 Q502.8296 448.0205 504.0171 447.2158 Q505.2046 446.4111 507.7515 446.4111 L509.6108 446.4111 L509.6108 446.1611 Q509.6108 445.4111 509.0171 445.0674 Q508.4233 444.7236 507.189 444.7236 Q506.1733 444.7236 505.2983 444.9268 Q504.4233 445.1299 503.689 445.5205 L503.689 443.1299 Q504.689 442.8799 505.7124 442.7549 Q506.7358 442.6299 507.7515 442.6299 Q510.4233 442.6299 511.603 443.6768 Q512.7827 444.7236 512.7827 447.0986 ZM520.9448 450.6768 Q521.9604 450.6768 522.4917 449.9424 Q523.0229 449.208 523.0229 447.8018 Q523.0229 446.3955 522.4917 445.6533 Q521.9604 444.9111 520.9448 444.9111 Q519.9292 444.9111 519.3901 445.6533 Q518.8511 446.3955 518.8511 447.8018 Q518.8511 449.1924 519.3901 449.9346 Q519.9292 450.6768 520.9448 450.6768 ZM518.8511 444.3018 Q519.5073 443.4424 520.2964 443.0361 Q521.0854 442.6299 522.1167 442.6299 Q523.9292 442.6299 525.1011 444.0752 Q526.2729 445.5205 526.2729 447.8018 Q526.2729 450.0674 525.1011 451.5127 Q523.9292 452.958 522.1167 452.958 Q521.0854 452.958 520.2964 452.5518 Q519.5073 452.1455 518.8511 451.2861 L518.8511 452.708 L515.7104 452.708 L515.7104 439.0361 L518.8511 439.0361 L518.8511 444.3018 ZM533.2827 444.8799 Q532.2358 444.8799 531.6812 445.6299 Q531.1265 446.3799 531.1265 447.8018 Q531.1265 449.208 531.6812 449.958 Q532.2358 450.708 533.2827 450.708 Q534.2983 450.708 534.8452 449.958 Q535.3921 449.208 535.3921 447.8018 Q535.3921 446.3799 534.8452 445.6299 Q534.2983 444.8799 533.2827 444.8799 ZM533.2827 442.6299 Q535.814 442.6299 537.2437 443.9971 Q538.6733 445.3643 538.6733 447.8018 Q538.6733 450.2236 537.2437 451.5908 Q535.814 452.958 533.2827 452.958 Q530.7202 452.958 529.2905 451.5908 Q527.8608 450.2236 527.8608 447.8018 Q527.8608 445.3643 529.2905 443.9971 Q530.7202 442.6299 533.2827 442.6299 ZM540.8521 448.8799 L540.8521 442.8643 L544.0239 442.8643 L544.0239 443.8486 Q544.0239 444.6455 544.0083 445.8564 Q543.9927 447.0674 543.9927 447.4736 Q543.9927 448.6611 544.0552 449.1846 Q544.1177 449.708 544.2739 449.9424 Q544.4614 450.2393 544.7739 450.4111 Q545.0864 450.583 545.4927 450.583 Q546.4771 450.583 547.0396 449.8252 Q547.6021 449.0674 547.6021 447.7236 L547.6021 442.8643 L550.7427 442.8643 L550.7427 452.708 L547.6021 452.708 L547.6021 451.2861 Q546.8833 452.1455 546.0942 452.5518 Q545.3052 452.958 544.3364 452.958 Q542.6333 452.958 541.7427 451.9111 Q540.8521 450.8643 540.8521 448.8799 ZM557.2134 440.0674 L557.2134 442.8643 L560.4478 442.8643 L560.4478 445.1143 L557.2134 445.1143 L557.2134 449.2861 Q557.2134 449.9736 557.4868 450.2158 Q557.7603 450.458 558.5571 450.458 L560.1821 450.458 L560.1821 452.708 L557.479 452.708 Q555.6196 452.708 554.8384 451.9268 Q554.0571 451.1455 554.0571 449.2861 L554.0571 445.1143 L552.4946 445.1143 L552.4946 442.8643 L554.0571 442.8643 L554.0571 440.0674 L557.2134 440.0674 ZM572.0845 440.0674 L572.0845 442.8643 L575.3188 442.8643 L575.3188 445.1143 L572.0845 445.1143 L572.0845 449.2861 Q572.0845 449.9736 572.3579 450.2158 Q572.6313 450.458 573.4282 450.458 L575.0532 450.458 L575.0532 452.708 L572.3501 452.708 Q570.4907 452.708 569.7095 451.9268 Q568.9282 451.1455 568.9282 449.2861 L568.9282 445.1143 L567.3657 445.1143 L567.3657 442.8643 L568.9282 442.8643 L568.9282 440.0674 L572.0845 440.0674 ZM587.1421 446.708 L587.1421 452.708 L583.9858 452.708 L583.9858 451.7393 L583.9858 448.1299 Q583.9858 446.8486 583.9233 446.3643 Q583.8608 445.8799 583.7202 445.6455 Q583.5483 445.3486 583.228 445.1768 Q582.9077 445.0049 582.5015 445.0049 Q581.5171 445.0049 580.9546 445.7627 Q580.3921 446.5205 580.3921 447.8643 L580.3921 452.708 L577.2515 452.708 L577.2515 439.0361 L580.3921 439.0361 L580.3921 444.3018 Q581.1108 443.4424 581.9077 443.0361 Q582.7046 442.6299 583.6733 442.6299 Q585.3765 442.6299 586.2593 443.6768 Q587.1421 444.7236 587.1421 446.708 ZM599.894 447.7549 L599.894 448.6611 L592.5347 448.6611 Q592.644 449.7705 593.3315 450.3174 Q594.019 450.8643 595.2534 450.8643 Q596.2378 450.8643 597.2847 450.5752 Q598.3315 450.2861 599.4253 449.6768 L599.4253 452.1143 Q598.3003 452.5361 597.1909 452.7471 Q596.0815 452.958 594.9565 452.958 Q592.2847 452.958 590.8081 451.5986 Q589.3315 450.2393 589.3315 447.8018 Q589.3315 445.3799 590.7847 444.0049 Q592.2378 442.6299 594.7847 442.6299 Q597.0972 442.6299 598.4956 444.0283 Q599.894 445.4268 599.894 447.7549 ZM596.6597 446.708 Q596.6597 445.8174 596.1362 445.2705 Q595.6128 444.7236 594.769 444.7236 Q593.8472 444.7236 593.2769 445.2314 Q592.7065 445.7393 592.5659 446.708 L596.6597 446.708 ZM607.6655 442.8643 L610.7124 442.8643 L612.3687 449.6455 L614.0249 442.8643 L616.6655 442.8643 L618.3062 449.583 L619.978 442.8643 L623.0249 442.8643 L620.4312 452.708 L616.9937 452.708 L615.3374 445.9424 L613.6812 452.708 L610.2437 452.708 L607.6655 442.8643 ZM629.8569 444.8799 Q628.8101 444.8799 628.2554 445.6299 Q627.7007 446.3799 627.7007 447.8018 Q627.7007 449.208 628.2554 449.958 Q628.8101 450.708 629.8569 450.708 Q630.8726 450.708 631.4194 449.958 Q631.9663 449.208 631.9663 447.8018 Q631.9663 446.3799 631.4194 445.6299 Q630.8726 444.8799 629.8569 444.8799 ZM629.8569 442.6299 Q632.3882 442.6299 633.8179 443.9971 Q635.2476 445.3643 635.2476 447.8018 Q635.2476 450.2236 633.8179 451.5908 Q632.3882 452.958 629.8569 452.958 Q627.2944 452.958 625.8647 451.5908 Q624.4351 450.2236 624.4351 447.8018 Q624.4351 445.3643 625.8647 443.9971 Q627.2944 442.6299 629.8569 442.6299 ZM644.8481 445.5518 Q644.4263 445.3486 644.02 445.2549 Q643.6138 445.1611 643.2075 445.1611 Q641.9888 445.1611 641.3325 445.9424 Q640.6763 446.7236 640.6763 448.1768 L640.6763 452.708 L637.5356 452.708 L637.5356 442.8643 L640.6763 442.8643 L640.6763 444.4736 Q641.2856 443.5205 642.0747 443.0752 Q642.8638 442.6299 643.9575 442.6299 Q644.1138 442.6299 644.3013 442.6377 Q644.4888 442.6455 644.8325 442.6924 L644.8481 445.5518 ZM646.4126 439.0361 L649.5532 439.0361 L649.5532 452.708 L646.4126 452.708 L646.4126 439.0361 ZM659.27 444.3018 L659.27 439.0361 L662.4419 439.0361 L662.4419 452.708 L659.27 452.708 L659.27 451.2861 Q658.6294 452.1611 657.8481 452.5596 Q657.0669 452.958 656.0356 452.958 Q654.2075 452.958 653.0435 451.5127 Q651.8794 450.0674 651.8794 447.8018 Q651.8794 445.5205 653.0435 444.0752 Q654.2075 442.6299 656.0356 442.6299 Q657.0513 442.6299 657.8403 443.0361 Q658.6294 443.4424 659.27 444.3018 ZM657.2075 450.6768 Q658.2075 450.6768 658.7388 449.9424 Q659.27 449.208 659.27 447.8018 Q659.27 446.3955 658.7388 445.6533 Q658.2075 444.9111 657.2075 444.9111 Q656.2075 444.9111 655.6685 445.6533 Q655.1294 446.3955 655.1294 447.8018 Q655.1294 449.208 655.6685 449.9424 Q656.2075 450.6768 657.2075 450.6768 Z" clip-path="url(#clipPath3)" stroke="none"/>
    </g>
    <g text-rendering="geometricPrecision" stroke-miterlimit="1.45" shape-rendering="geometricPrecision" transform="matrix(1,0,0,1,-433,-287)" stroke-linecap="butt">
      <circle fill="none" r="135" clip-path="url(#clipPath2)" cx="583" cy="437"/>
    </g>
    <g fill="rgb(204,255,255)" text-rendering="geometricPrecision" shape-rendering="geometricPrecision" transform="matrix(1,0,0,1,-433,-287)" stroke="rgb(204,255,255)">
      <circle r="135" clip-path="url(#clipPath2)" cx="1049" cy="437" stroke="none"/>
      <path fill="black" d="M926.0386 431.9893 L925.7886 431.9893 Q922.5386 431.9893 920.7339 430.2002 Q918.9292 428.4111 918.9292 425.208 Q918.9292 422.0205 920.7261 420.208 Q922.5229 418.3955 925.6792 418.3955 Q928.8823 418.3955 930.6558 420.1846 Q932.4292 421.9736 932.4292 425.208 Q932.4292 427.4268 931.4839 429.0205 Q930.5386 430.6143 928.7729 431.4268 L931.4136 434.3799 L928.1948 434.3799 L926.0386 431.9893 ZM925.6792 420.8486 Q924.1323 420.8486 923.2808 421.9893 Q922.4292 423.1299 922.4292 425.208 Q922.4292 427.3174 923.2651 428.4346 Q924.1011 429.5518 925.6792 429.5518 Q927.2417 429.5518 928.0933 428.4111 Q928.9448 427.2705 928.9448 425.208 Q928.9448 423.1299 928.0933 421.9893 Q927.2417 420.8486 925.6792 420.8486 ZM934.7466 427.9268 L934.7466 421.9111 L937.9185 421.9111 L937.9185 422.8955 Q937.9185 423.6924 937.9028 424.9033 Q937.8872 426.1143 937.8872 426.5205 Q937.8872 427.708 937.9497 428.2314 Q938.0122 428.7549 938.1685 428.9893 Q938.356 429.2861 938.6685 429.458 Q938.981 429.6299 939.3872 429.6299 Q940.3716 429.6299 940.9341 428.8721 Q941.4966 428.1143 941.4966 426.7705 L941.4966 421.9111 L944.6372 421.9111 L944.6372 431.7549 L941.4966 431.7549 L941.4966 430.333 Q940.7778 431.1924 939.9888 431.5986 Q939.1997 432.0049 938.231 432.0049 Q936.5278 432.0049 935.6372 430.958 Q934.7466 429.9111 934.7466 427.9268 ZM957.4985 426.8018 L957.4985 427.708 L950.1392 427.708 Q950.2485 428.8174 950.936 429.3643 Q951.6235 429.9111 952.8579 429.9111 Q953.8423 429.9111 954.8892 429.6221 Q955.936 429.333 957.0298 428.7236 L957.0298 431.1611 Q955.9048 431.583 954.7954 431.7939 Q953.686 432.0049 952.561 432.0049 Q949.8892 432.0049 948.4126 430.6455 Q946.936 429.2861 946.936 426.8486 Q946.936 424.4268 948.3892 423.0518 Q949.8423 421.6768 952.3892 421.6768 Q954.7017 421.6768 956.1001 423.0752 Q957.4985 424.4736 957.4985 426.8018 ZM954.2642 425.7549 Q954.2642 424.8643 953.7407 424.3174 Q953.2173 423.7705 952.3735 423.7705 Q951.4517 423.7705 950.8813 424.2783 Q950.311 424.7861 950.1704 425.7549 L954.2642 425.7549 ZM967.5659 422.2236 L967.5659 424.6143 Q966.5503 424.1924 965.6128 423.9814 Q964.6753 423.7705 963.8315 423.7705 Q962.9409 423.7705 962.5034 423.9893 Q962.0659 424.208 962.0659 424.6768 Q962.0659 425.0518 962.4019 425.2549 Q962.7378 425.458 963.5815 425.5518 L964.144 425.6299 Q966.5503 425.9424 967.3862 426.6455 Q968.2222 427.3486 968.2222 428.8486 Q968.2222 430.4268 967.0659 431.2158 Q965.9097 432.0049 963.5972 432.0049 Q962.6284 432.0049 961.5894 431.8564 Q960.5503 431.708 959.4409 431.3955 L959.4409 429.0049 Q960.3784 429.458 961.3706 429.6846 Q962.3628 429.9111 963.3784 429.9111 Q964.3003 429.9111 964.769 429.6611 Q965.2378 429.4111 965.2378 428.9111 Q965.2378 428.4893 964.9175 428.2783 Q964.5972 428.0674 963.644 427.958 L963.0815 427.8799 Q960.9878 427.6299 960.144 426.9111 Q959.3003 426.1924 959.3003 424.7549 Q959.3003 423.1924 960.3706 422.4346 Q961.4409 421.6768 963.6597 421.6768 Q964.519 421.6768 965.48 421.8096 Q966.4409 421.9424 967.5659 422.2236 ZM974.0298 419.1143 L974.0298 421.9111 L977.2642 421.9111 L977.2642 424.1611 L974.0298 424.1611 L974.0298 428.333 Q974.0298 429.0205 974.3032 429.2627 Q974.5767 429.5049 975.3735 429.5049 L976.9985 429.5049 L976.9985 431.7549 L974.2954 431.7549 Q972.436 431.7549 971.6548 430.9736 Q970.8735 430.1924 970.8735 428.333 L970.8735 424.1611 L969.311 424.1611 L969.311 421.9111 L970.8735 421.9111 L970.8735 419.1143 L974.0298 419.1143 ZM979.1968 421.9111 L982.3374 421.9111 L982.3374 431.7549 L979.1968 431.7549 L979.1968 421.9111 ZM979.1968 418.083 L982.3374 418.083 L982.3374 420.6455 L979.1968 420.6455 L979.1968 418.083 ZM990.0542 423.9268 Q989.0073 423.9268 988.4526 424.6768 Q987.8979 425.4268 987.8979 426.8486 Q987.8979 428.2549 988.4526 429.0049 Q989.0073 429.7549 990.0542 429.7549 Q991.0698 429.7549 991.6167 429.0049 Q992.1636 428.2549 992.1636 426.8486 Q992.1636 425.4268 991.6167 424.6768 Q991.0698 423.9268 990.0542 423.9268 ZM990.0542 421.6768 Q992.5854 421.6768 994.0151 423.0439 Q995.4448 424.4111 995.4448 426.8486 Q995.4448 429.2705 994.0151 430.6377 Q992.5854 432.0049 990.0542 432.0049 Q987.4917 432.0049 986.062 430.6377 Q984.6323 429.2705 984.6323 426.8486 Q984.6323 424.4111 986.062 423.0439 Q987.4917 421.6768 990.0542 421.6768 ZM1007.6235 425.7549 L1007.6235 431.7549 L1004.4673 431.7549 L1004.4673 430.7861 L1004.4673 427.1611 Q1004.4673 425.8955 1004.4048 425.4111 Q1004.3423 424.9268 1004.2017 424.6924 Q1004.0298 424.3955 1003.7095 424.2236 Q1003.3892 424.0518 1002.9829 424.0518 Q1001.9985 424.0518 1001.436 424.8096 Q1000.8735 425.5674 1000.8735 426.9111 L1000.8735 431.7549 L997.7329 431.7549 L997.7329 421.9111 L1000.8735 421.9111 L1000.8735 423.3486 Q1001.5923 422.4893 1002.3892 422.083 Q1003.186 421.6768 1004.1548 421.6768 Q1005.8579 421.6768 1006.7407 422.7236 Q1007.6235 423.7705 1007.6235 425.7549 ZM1018.2349 422.2236 L1018.2349 424.6143 Q1017.2192 424.1924 1016.2817 423.9814 Q1015.3442 423.7705 1014.5005 423.7705 Q1013.6099 423.7705 1013.1724 423.9893 Q1012.7349 424.208 1012.7349 424.6768 Q1012.7349 425.0518 1013.0708 425.2549 Q1013.4067 425.458 1014.2505 425.5518 L1014.813 425.6299 Q1017.2192 425.9424 1018.0552 426.6455 Q1018.8911 427.3486 1018.8911 428.8486 Q1018.8911 430.4268 1017.7349 431.2158 Q1016.5786 432.0049 1014.2661 432.0049 Q1013.2974 432.0049 1012.2583 431.8564 Q1011.2192 431.708 1010.1099 431.3955 L1010.1099 429.0049 Q1011.0474 429.458 1012.0396 429.6846 Q1013.0317 429.9111 1014.0474 429.9111 Q1014.9692 429.9111 1015.438 429.6611 Q1015.9067 429.4111 1015.9067 428.9111 Q1015.9067 428.4893 1015.5864 428.2783 Q1015.2661 428.0674 1014.313 427.958 L1013.7505 427.8799 Q1011.6567 427.6299 1010.813 426.9111 Q1009.9692 426.1924 1009.9692 424.7549 Q1009.9692 423.1924 1011.0396 422.4346 Q1012.1099 421.6768 1014.3286 421.6768 Q1015.188 421.6768 1016.1489 421.8096 Q1017.1099 421.9424 1018.2349 422.2236 ZM1031.9341 427.3174 Q1030.9497 427.3174 1030.4575 427.6533 Q1029.9653 427.9893 1029.9653 428.6455 Q1029.9653 429.2393 1030.3638 429.5752 Q1030.7622 429.9111 1031.4653 429.9111 Q1032.356 429.9111 1032.9653 429.2783 Q1033.5747 428.6455 1033.5747 427.6924 L1033.5747 427.3174 L1031.9341 427.3174 ZM1036.7466 426.1455 L1036.7466 431.7549 L1033.5747 431.7549 L1033.5747 430.3018 Q1032.9341 431.1924 1032.145 431.5986 Q1031.356 432.0049 1030.2153 432.0049 Q1028.6997 432.0049 1027.7466 431.1143 Q1026.7935 430.2236 1026.7935 428.8018 Q1026.7935 427.0674 1027.981 426.2627 Q1029.1685 425.458 1031.7153 425.458 L1033.5747 425.458 L1033.5747 425.208 Q1033.5747 424.458 1032.981 424.1143 Q1032.3872 423.7705 1031.1528 423.7705 Q1030.1372 423.7705 1029.2622 423.9736 Q1028.3872 424.1768 1027.6528 424.5674 L1027.6528 422.1768 Q1028.6528 421.9268 1029.6763 421.8018 Q1030.6997 421.6768 1031.7153 421.6768 Q1034.3872 421.6768 1035.5669 422.7236 Q1036.7466 423.7705 1036.7466 426.1455 ZM1049.5649 425.7549 L1049.5649 431.7549 L1046.4087 431.7549 L1046.4087 430.7861 L1046.4087 427.1611 Q1046.4087 425.8955 1046.3462 425.4111 Q1046.2837 424.9268 1046.1431 424.6924 Q1045.9712 424.3955 1045.6509 424.2236 Q1045.3306 424.0518 1044.9243 424.0518 Q1043.9399 424.0518 1043.3774 424.8096 Q1042.8149 425.5674 1042.8149 426.9111 L1042.8149 431.7549 L1039.6743 431.7549 L1039.6743 421.9111 L1042.8149 421.9111 L1042.8149 423.3486 Q1043.5337 422.4893 1044.3306 422.083 Q1045.1274 421.6768 1046.0962 421.6768 Q1047.7993 421.6768 1048.6821 422.7236 Q1049.5649 423.7705 1049.5649 425.7549 ZM1060.1763 422.2236 L1060.1763 424.6143 Q1059.1606 424.1924 1058.2231 423.9814 Q1057.2856 423.7705 1056.4419 423.7705 Q1055.5513 423.7705 1055.1138 423.9893 Q1054.6763 424.208 1054.6763 424.6768 Q1054.6763 425.0518 1055.0122 425.2549 Q1055.3481 425.458 1056.1919 425.5518 L1056.7544 425.6299 Q1059.1606 425.9424 1059.9966 426.6455 Q1060.8325 427.3486 1060.8325 428.8486 Q1060.8325 430.4268 1059.6763 431.2158 Q1058.52 432.0049 1056.2075 432.0049 Q1055.2388 432.0049 1054.1997 431.8564 Q1053.1606 431.708 1052.0513 431.3955 L1052.0513 429.0049 Q1052.9888 429.458 1053.981 429.6846 Q1054.9731 429.9111 1055.9888 429.9111 Q1056.9106 429.9111 1057.3794 429.6611 Q1057.8481 429.4111 1057.8481 428.9111 Q1057.8481 428.4893 1057.5278 428.2783 Q1057.2075 428.0674 1056.2544 427.958 L1055.6919 427.8799 Q1053.5981 427.6299 1052.7544 426.9111 Q1051.9106 426.1924 1051.9106 424.7549 Q1051.9106 423.1924 1052.981 422.4346 Q1054.0513 421.6768 1056.27 421.6768 Q1057.1294 421.6768 1058.0903 421.8096 Q1059.0513 421.9424 1060.1763 422.2236 ZM1062.3276 421.9111 L1065.3745 421.9111 L1067.0308 428.6924 L1068.687 421.9111 L1071.3276 421.9111 L1072.9683 428.6299 L1074.6401 421.9111 L1077.687 421.9111 L1075.0933 431.7549 L1071.6558 431.7549 L1069.9995 424.9893 L1068.3433 431.7549 L1064.9058 431.7549 L1062.3276 421.9111 ZM1089.6597 426.8018 L1089.6597 427.708 L1082.3003 427.708 Q1082.4097 428.8174 1083.0972 429.3643 Q1083.7847 429.9111 1085.019 429.9111 Q1086.0034 429.9111 1087.0503 429.6221 Q1088.0972 429.333 1089.1909 428.7236 L1089.1909 431.1611 Q1088.0659 431.583 1086.9565 431.7939 Q1085.8472 432.0049 1084.7222 432.0049 Q1082.0503 432.0049 1080.5737 430.6455 Q1079.0972 429.2861 1079.0972 426.8486 Q1079.0972 424.4268 1080.5503 423.0518 Q1082.0034 421.6768 1084.5503 421.6768 Q1086.8628 421.6768 1088.2612 423.0752 Q1089.6597 424.4736 1089.6597 426.8018 ZM1086.4253 425.7549 Q1086.4253 424.8643 1085.9019 424.3174 Q1085.3784 423.7705 1084.5347 423.7705 Q1083.6128 423.7705 1083.0425 424.2783 Q1082.4722 424.7861 1082.3315 425.7549 L1086.4253 425.7549 ZM1099.3521 424.5986 Q1098.9302 424.3955 1098.5239 424.3018 Q1098.1177 424.208 1097.7114 424.208 Q1096.4927 424.208 1095.8364 424.9893 Q1095.1802 425.7705 1095.1802 427.2236 L1095.1802 431.7549 L1092.0396 431.7549 L1092.0396 421.9111 L1095.1802 421.9111 L1095.1802 423.5205 Q1095.7896 422.5674 1096.5786 422.1221 Q1097.3677 421.6768 1098.4614 421.6768 Q1098.6177 421.6768 1098.8052 421.6846 Q1098.9927 421.6924 1099.3364 421.7393 L1099.3521 424.5986 ZM1105.3228 427.3174 Q1104.3384 427.3174 1103.8462 427.6533 Q1103.354 427.9893 1103.354 428.6455 Q1103.354 429.2393 1103.7524 429.5752 Q1104.1509 429.9111 1104.854 429.9111 Q1105.7446 429.9111 1106.354 429.2783 Q1106.9634 428.6455 1106.9634 427.6924 L1106.9634 427.3174 L1105.3228 427.3174 ZM1110.1353 426.1455 L1110.1353 431.7549 L1106.9634 431.7549 L1106.9634 430.3018 Q1106.3228 431.1924 1105.5337 431.5986 Q1104.7446 432.0049 1103.604 432.0049 Q1102.0884 432.0049 1101.1353 431.1143 Q1100.1821 430.2236 1100.1821 428.8018 Q1100.1821 427.0674 1101.3696 426.2627 Q1102.5571 425.458 1105.104 425.458 L1106.9634 425.458 L1106.9634 425.208 Q1106.9634 424.458 1106.3696 424.1143 Q1105.7759 423.7705 1104.5415 423.7705 Q1103.5259 423.7705 1102.6509 423.9736 Q1101.7759 424.1768 1101.0415 424.5674 L1101.0415 422.1768 Q1102.0415 421.9268 1103.0649 421.8018 Q1104.0884 421.6768 1105.104 421.6768 Q1107.7759 421.6768 1108.9556 422.7236 Q1110.1353 423.7705 1110.1353 426.1455 ZM1118.2974 429.7236 Q1119.313 429.7236 1119.8442 428.9893 Q1120.3755 428.2549 1120.3755 426.8486 Q1120.3755 425.4424 1119.8442 424.7002 Q1119.313 423.958 1118.2974 423.958 Q1117.2817 423.958 1116.7427 424.7002 Q1116.2036 425.4424 1116.2036 426.8486 Q1116.2036 428.2393 1116.7427 428.9814 Q1117.2817 429.7236 1118.2974 429.7236 ZM1116.2036 423.3486 Q1116.8599 422.4893 1117.6489 422.083 Q1118.438 421.6768 1119.4692 421.6768 Q1121.2817 421.6768 1122.4536 423.1221 Q1123.6255 424.5674 1123.6255 426.8486 Q1123.6255 429.1143 1122.4536 430.5596 Q1121.2817 432.0049 1119.4692 432.0049 Q1118.438 432.0049 1117.6489 431.5986 Q1116.8599 431.1924 1116.2036 430.333 L1116.2036 431.7549 L1113.063 431.7549 L1113.063 418.083 L1116.2036 418.083 L1116.2036 423.3486 ZM1125.9478 418.083 L1129.0884 418.083 L1129.0884 431.7549 L1125.9478 431.7549 L1125.9478 418.083 ZM1141.9458 426.8018 L1141.9458 427.708 L1134.5864 427.708 Q1134.6958 428.8174 1135.3833 429.3643 Q1136.0708 429.9111 1137.3052 429.9111 Q1138.2896 429.9111 1139.3364 429.6221 Q1140.3833 429.333 1141.4771 428.7236 L1141.4771 431.1611 Q1140.3521 431.583 1139.2427 431.7939 Q1138.1333 432.0049 1137.0083 432.0049 Q1134.3364 432.0049 1132.8599 430.6455 Q1131.3833 429.2861 1131.3833 426.8486 Q1131.3833 424.4268 1132.8364 423.0518 Q1134.2896 421.6768 1136.8364 421.6768 Q1139.1489 421.6768 1140.5474 423.0752 Q1141.9458 424.4736 1141.9458 426.8018 ZM1138.7114 425.7549 Q1138.7114 424.8643 1138.188 424.3174 Q1137.6646 423.7705 1136.8208 423.7705 Q1135.8989 423.7705 1135.3286 424.2783 Q1134.7583 424.7861 1134.6177 425.7549 L1138.7114 425.7549 ZM1155.8267 429.7236 Q1156.8423 429.7236 1157.3735 428.9893 Q1157.9048 428.2549 1157.9048 426.8486 Q1157.9048 425.4424 1157.3735 424.7002 Q1156.8423 423.958 1155.8267 423.958 Q1154.811 423.958 1154.272 424.7002 Q1153.7329 425.4424 1153.7329 426.8486 Q1153.7329 428.2393 1154.272 428.9814 Q1154.811 429.7236 1155.8267 429.7236 ZM1153.7329 423.3486 Q1154.3892 422.4893 1155.1782 422.083 Q1155.9673 421.6768 1156.9985 421.6768 Q1158.811 421.6768 1159.9829 423.1221 Q1161.1548 424.5674 1161.1548 426.8486 Q1161.1548 429.1143 1159.9829 430.5596 Q1158.811 432.0049 1156.9985 432.0049 Q1155.9673 432.0049 1155.1782 431.5986 Q1154.3892 431.1924 1153.7329 430.333 L1153.7329 431.7549 L1150.5923 431.7549 L1150.5923 418.083 L1153.7329 418.083 L1153.7329 423.3486 ZM1162.1802 421.9111 L1165.3208 421.9111 L1167.9771 428.583 L1170.2271 421.9111 L1173.3677 421.9111 L1169.2271 432.6924 Q1168.6021 434.333 1167.7739 434.9893 Q1166.9458 435.6455 1165.5864 435.6455 L1163.7583 435.6455 L1163.7583 433.5674 L1164.7427 433.5674 Q1165.5552 433.5674 1165.9146 433.3174 Q1166.2739 433.0674 1166.4771 432.4111 L1166.5708 432.1299 L1162.1802 421.9111 Z" clip-path="url(#clipPath4)" stroke="none"/>
      <path fill="black" d="M952.812 439.0361 L952.812 441.0986 L951.0776 441.0986 Q950.4058 441.0986 950.1401 441.3408 Q949.8745 441.583 949.8745 442.1768 L949.8745 442.8643 L952.5776 442.8643 L952.5776 445.1143 L949.8745 445.1143 L949.8745 452.708 L946.7339 452.708 L946.7339 445.1143 L945.1714 445.1143 L945.1714 442.8643 L946.7339 442.8643 L946.7339 442.1768 Q946.7339 440.5674 947.6323 439.8018 Q948.5308 439.0361 950.4058 439.0361 L952.812 439.0361 ZM961.4868 445.5518 Q961.0649 445.3486 960.6587 445.2549 Q960.2524 445.1611 959.8462 445.1611 Q958.6274 445.1611 957.9712 445.9424 Q957.3149 446.7236 957.3149 448.1768 L957.3149 452.708 L954.1743 452.708 L954.1743 442.8643 L957.3149 442.8643 L957.3149 444.4736 Q957.9243 443.5205 958.7134 443.0752 Q959.5024 442.6299 960.5962 442.6299 Q960.7524 442.6299 960.9399 442.6377 Q961.1274 442.6455 961.4712 442.6924 L961.4868 445.5518 ZM972.8794 447.7549 L972.8794 448.6611 L965.52 448.6611 Q965.6294 449.7705 966.3169 450.3174 Q967.0044 450.8643 968.2388 450.8643 Q969.2231 450.8643 970.27 450.5752 Q971.3169 450.2861 972.4106 449.6768 L972.4106 452.1143 Q971.2856 452.5361 970.1763 452.7471 Q969.0669 452.958 967.9419 452.958 Q965.27 452.958 963.7935 451.5986 Q962.3169 450.2393 962.3169 447.8018 Q962.3169 445.3799 963.77 444.0049 Q965.2231 442.6299 967.77 442.6299 Q970.0825 442.6299 971.481 444.0283 Q972.8794 445.4268 972.8794 447.7549 ZM969.645 446.708 Q969.645 445.8174 969.1216 445.2705 Q968.5981 444.7236 967.7544 444.7236 Q966.8325 444.7236 966.2622 445.2314 Q965.6919 445.7393 965.5513 446.708 L969.645 446.708 ZM979.8843 444.9111 Q978.8843 444.9111 978.3452 445.6533 Q977.8062 446.3955 977.8062 447.8018 Q977.8062 449.208 978.3452 449.9424 Q978.8843 450.6768 979.8843 450.6768 Q980.8843 450.6768 981.4155 449.9424 Q981.9468 449.208 981.9468 447.8018 Q981.9468 446.3955 981.4155 445.6533 Q980.8843 444.9111 979.8843 444.9111 ZM981.9468 451.2861 Q981.3062 452.1611 980.5249 452.5596 Q979.7437 452.958 978.7124 452.958 Q976.8843 452.958 975.7202 451.5127 Q974.5562 450.0674 974.5562 447.8018 Q974.5562 445.5205 975.7202 444.083 Q976.8843 442.6455 978.7124 442.6455 Q979.7437 442.6455 980.5249 443.0518 Q981.3062 443.458 981.9468 444.3174 L981.9468 442.8643 L985.1187 442.8643 L985.1187 456.458 L981.9468 456.458 L981.9468 451.2861 ZM988.0347 448.8799 L988.0347 442.8643 L991.2065 442.8643 L991.2065 443.8486 Q991.2065 444.6455 991.1909 445.8564 Q991.1753 447.0674 991.1753 447.4736 Q991.1753 448.6611 991.2378 449.1846 Q991.3003 449.708 991.4565 449.9424 Q991.644 450.2393 991.9565 450.4111 Q992.269 450.583 992.6753 450.583 Q993.6597 450.583 994.2222 449.8252 Q994.7847 449.0674 994.7847 447.7236 L994.7847 442.8643 L997.9253 442.8643 L997.9253 452.708 L994.7847 452.708 L994.7847 451.2861 Q994.0659 452.1455 993.2769 452.5518 Q992.4878 452.958 991.519 452.958 Q989.8159 452.958 988.9253 451.9111 Q988.0347 450.8643 988.0347 448.8799 ZM1010.7866 447.7549 L1010.7866 448.6611 L1003.4272 448.6611 Q1003.5366 449.7705 1004.2241 450.3174 Q1004.9116 450.8643 1006.146 450.8643 Q1007.1304 450.8643 1008.1772 450.5752 Q1009.2241 450.2861 1010.3179 449.6768 L1010.3179 452.1143 Q1009.1929 452.5361 1008.0835 452.7471 Q1006.9741 452.958 1005.8491 452.958 Q1003.1772 452.958 1001.7007 451.5986 Q1000.2241 450.2393 1000.2241 447.8018 Q1000.2241 445.3799 1001.6772 444.0049 Q1003.1304 442.6299 1005.6772 442.6299 Q1007.9897 442.6299 1009.3882 444.0283 Q1010.7866 445.4268 1010.7866 447.7549 ZM1007.5522 446.708 Q1007.5522 445.8174 1007.0288 445.2705 Q1006.5054 444.7236 1005.6616 444.7236 Q1004.7397 444.7236 1004.1694 445.2314 Q1003.5991 445.7393 1003.4585 446.708 L1007.5522 446.708 ZM1023.0571 446.708 L1023.0571 452.708 L1019.9009 452.708 L1019.9009 451.7393 L1019.9009 448.1143 Q1019.9009 446.8486 1019.8384 446.3643 Q1019.7759 445.8799 1019.6353 445.6455 Q1019.4634 445.3486 1019.1431 445.1768 Q1018.8228 445.0049 1018.4165 445.0049 Q1017.4321 445.0049 1016.8696 445.7627 Q1016.3071 446.5205 1016.3071 447.8643 L1016.3071 452.708 L1013.1665 452.708 L1013.1665 442.8643 L1016.3071 442.8643 L1016.3071 444.3018 Q1017.0259 443.4424 1017.8228 443.0361 Q1018.6196 442.6299 1019.5884 442.6299 Q1021.2915 442.6299 1022.1743 443.6768 Q1023.0571 444.7236 1023.0571 446.708 ZM1029.4185 440.0674 L1029.4185 442.8643 L1032.6528 442.8643 L1032.6528 445.1143 L1029.4185 445.1143 L1029.4185 449.2861 Q1029.4185 449.9736 1029.6919 450.2158 Q1029.9653 450.458 1030.7622 450.458 L1032.3872 450.458 L1032.3872 452.708 L1029.6841 452.708 Q1027.8247 452.708 1027.0435 451.9268 Q1026.2622 451.1455 1026.2622 449.2861 L1026.2622 445.1143 L1024.6997 445.1143 L1024.6997 442.8643 L1026.2622 442.8643 L1026.2622 440.0674 L1029.4185 440.0674 ZM1034.5854 442.8643 L1037.7261 442.8643 L1037.7261 452.708 L1034.5854 452.708 L1034.5854 442.8643 ZM1034.5854 439.0361 L1037.7261 439.0361 L1037.7261 441.5986 L1034.5854 441.5986 L1034.5854 439.0361 ZM1048.4429 443.1768 L1048.4429 445.5674 Q1047.4272 445.1455 1046.4897 444.9346 Q1045.5522 444.7236 1044.7085 444.7236 Q1043.8179 444.7236 1043.3804 444.9424 Q1042.9429 445.1611 1042.9429 445.6299 Q1042.9429 446.0049 1043.2788 446.208 Q1043.6147 446.4111 1044.4585 446.5049 L1045.021 446.583 Q1047.4272 446.8955 1048.2632 447.5986 Q1049.0991 448.3018 1049.0991 449.8018 Q1049.0991 451.3799 1047.9429 452.1689 Q1046.7866 452.958 1044.4741 452.958 Q1043.5054 452.958 1042.4663 452.8096 Q1041.4272 452.6611 1040.3179 452.3486 L1040.3179 449.958 Q1041.2554 450.4111 1042.2476 450.6377 Q1043.2397 450.8643 1044.2554 450.8643 Q1045.1772 450.8643 1045.646 450.6143 Q1046.1147 450.3643 1046.1147 449.8643 Q1046.1147 449.4424 1045.7944 449.2314 Q1045.4741 449.0205 1044.521 448.9111 L1043.9585 448.833 Q1041.8647 448.583 1041.021 447.8643 Q1040.1772 447.1455 1040.1772 445.708 Q1040.1772 444.1455 1041.2476 443.3877 Q1042.3179 442.6299 1044.5366 442.6299 Q1045.396 442.6299 1046.3569 442.7627 Q1047.3179 442.8955 1048.4429 443.1768 ZM1054.9067 440.0674 L1054.9067 442.8643 L1058.1411 442.8643 L1058.1411 445.1143 L1054.9067 445.1143 L1054.9067 449.2861 Q1054.9067 449.9736 1055.1802 450.2158 Q1055.4536 450.458 1056.2505 450.458 L1057.8755 450.458 L1057.8755 452.708 L1055.1724 452.708 Q1053.313 452.708 1052.5317 451.9268 Q1051.7505 451.1455 1051.7505 449.2861 L1051.7505 445.1143 L1050.188 445.1143 L1050.188 442.8643 L1051.7505 442.8643 L1051.7505 440.0674 L1054.9067 440.0674 ZM1075.4653 444.5049 Q1076.0591 443.583 1076.8794 443.1064 Q1077.6997 442.6299 1078.6841 442.6299 Q1080.3872 442.6299 1081.27 443.6768 Q1082.1528 444.7236 1082.1528 446.708 L1082.1528 452.708 L1078.9966 452.708 L1078.9966 447.5674 Q1078.9966 447.458 1079.0044 447.333 Q1079.0122 447.208 1079.0122 446.9893 Q1079.0122 445.9424 1078.7075 445.4736 Q1078.4028 445.0049 1077.7153 445.0049 Q1076.8091 445.0049 1076.3247 445.7393 Q1075.8403 446.4736 1075.8247 447.8799 L1075.8247 452.708 L1072.6528 452.708 L1072.6528 447.5674 Q1072.6528 445.9424 1072.3716 445.4736 Q1072.0903 445.0049 1071.3716 445.0049 Q1070.4653 445.0049 1069.9731 445.7471 Q1069.481 446.4893 1069.481 447.8643 L1069.481 452.708 L1066.3247 452.708 L1066.3247 442.8643 L1069.481 442.8643 L1069.481 444.3018 Q1070.0591 443.4736 1070.8091 443.0518 Q1071.5591 442.6299 1072.4653 442.6299 Q1073.4966 442.6299 1074.2778 443.1221 Q1075.0591 443.6143 1075.4653 444.5049 ZM1094.9243 447.7549 L1094.9243 448.6611 L1087.5649 448.6611 Q1087.6743 449.7705 1088.3618 450.3174 Q1089.0493 450.8643 1090.2837 450.8643 Q1091.2681 450.8643 1092.3149 450.5752 Q1093.3618 450.2861 1094.4556 449.6768 L1094.4556 452.1143 Q1093.3306 452.5361 1092.2212 452.7471 Q1091.1118 452.958 1089.9868 452.958 Q1087.3149 452.958 1085.8384 451.5986 Q1084.3618 450.2393 1084.3618 447.8018 Q1084.3618 445.3799 1085.8149 444.0049 Q1087.2681 442.6299 1089.8149 442.6299 Q1092.1274 442.6299 1093.5259 444.0283 Q1094.9243 445.4268 1094.9243 447.7549 ZM1091.6899 446.708 Q1091.6899 445.8174 1091.1665 445.2705 Q1090.6431 444.7236 1089.7993 444.7236 Q1088.8774 444.7236 1088.3071 445.2314 Q1087.7368 445.7393 1087.5962 446.708 L1091.6899 446.708 ZM1100.7417 440.0674 L1100.7417 442.8643 L1103.9761 442.8643 L1103.9761 445.1143 L1100.7417 445.1143 L1100.7417 449.2861 Q1100.7417 449.9736 1101.0151 450.2158 Q1101.2886 450.458 1102.0854 450.458 L1103.7104 450.458 L1103.7104 452.708 L1101.0073 452.708 Q1099.1479 452.708 1098.3667 451.9268 Q1097.5854 451.1455 1097.5854 449.2861 L1097.5854 445.1143 L1096.0229 445.1143 L1096.0229 442.8643 L1097.5854 442.8643 L1097.5854 440.0674 L1100.7417 440.0674 ZM1115.7993 446.708 L1115.7993 452.708 L1112.6431 452.708 L1112.6431 451.7393 L1112.6431 448.1299 Q1112.6431 446.8486 1112.5806 446.3643 Q1112.5181 445.8799 1112.3774 445.6455 Q1112.2056 445.3486 1111.8853 445.1768 Q1111.5649 445.0049 1111.1587 445.0049 Q1110.1743 445.0049 1109.6118 445.7627 Q1109.0493 446.5205 1109.0493 447.8643 L1109.0493 452.708 L1105.9087 452.708 L1105.9087 439.0361 L1109.0493 439.0361 L1109.0493 444.3018 Q1109.7681 443.4424 1110.5649 443.0361 Q1111.3618 442.6299 1112.3306 442.6299 Q1114.0337 442.6299 1114.9165 443.6768 Q1115.7993 444.7236 1115.7993 446.708 ZM1123.4106 444.8799 Q1122.3638 444.8799 1121.8091 445.6299 Q1121.2544 446.3799 1121.2544 447.8018 Q1121.2544 449.208 1121.8091 449.958 Q1122.3638 450.708 1123.4106 450.708 Q1124.4263 450.708 1124.9731 449.958 Q1125.52 449.208 1125.52 447.8018 Q1125.52 446.3799 1124.9731 445.6299 Q1124.4263 444.8799 1123.4106 444.8799 ZM1123.4106 442.6299 Q1125.9419 442.6299 1127.3716 443.9971 Q1128.8013 445.3643 1128.8013 447.8018 Q1128.8013 450.2236 1127.3716 451.5908 Q1125.9419 452.958 1123.4106 452.958 Q1120.8481 452.958 1119.4185 451.5908 Q1117.9888 450.2236 1117.9888 447.8018 Q1117.9888 445.3643 1119.4185 443.9971 Q1120.8481 442.6299 1123.4106 442.6299 ZM1137.7769 444.3018 L1137.7769 439.0361 L1140.9487 439.0361 L1140.9487 452.708 L1137.7769 452.708 L1137.7769 451.2861 Q1137.1362 452.1611 1136.355 452.5596 Q1135.5737 452.958 1134.5425 452.958 Q1132.7144 452.958 1131.5503 451.5127 Q1130.3862 450.0674 1130.3862 447.8018 Q1130.3862 445.5205 1131.5503 444.0752 Q1132.7144 442.6299 1134.5425 442.6299 Q1135.5581 442.6299 1136.3472 443.0361 Q1137.1362 443.4424 1137.7769 444.3018 ZM1135.7144 450.6768 Q1136.7144 450.6768 1137.2456 449.9424 Q1137.7769 449.208 1137.7769 447.8018 Q1137.7769 446.3955 1137.2456 445.6533 Q1136.7144 444.9111 1135.7144 444.9111 Q1134.7144 444.9111 1134.1753 445.6533 Q1133.6362 446.3955 1133.6362 447.8018 Q1133.6362 449.208 1134.1753 449.9424 Q1134.7144 450.6768 1135.7144 450.6768 ZM1151.6616 443.1768 L1151.6616 445.5674 Q1150.646 445.1455 1149.7085 444.9346 Q1148.771 444.7236 1147.9272 444.7236 Q1147.0366 444.7236 1146.5991 444.9424 Q1146.1616 445.1611 1146.1616 445.6299 Q1146.1616 446.0049 1146.4976 446.208 Q1146.8335 446.4111 1147.6772 446.5049 L1148.2397 446.583 Q1150.646 446.8955 1151.4819 447.5986 Q1152.3179 448.3018 1152.3179 449.8018 Q1152.3179 451.3799 1151.1616 452.1689 Q1150.0054 452.958 1147.6929 452.958 Q1146.7241 452.958 1145.6851 452.8096 Q1144.646 452.6611 1143.5366 452.3486 L1143.5366 449.958 Q1144.4741 450.4111 1145.4663 450.6377 Q1146.4585 450.8643 1147.4741 450.8643 Q1148.396 450.8643 1148.8647 450.6143 Q1149.3335 450.3643 1149.3335 449.8643 Q1149.3335 449.4424 1149.0132 449.2314 Q1148.6929 449.0205 1147.7397 448.9111 L1147.1772 448.833 Q1145.0835 448.583 1144.2397 447.8643 Q1143.396 447.1455 1143.396 445.708 Q1143.396 444.1455 1144.4663 443.3877 Q1145.5366 442.6299 1147.7554 442.6299 Q1148.6147 442.6299 1149.5757 442.7627 Q1150.5366 442.8955 1151.6616 443.1768 Z" clip-path="url(#clipPath4)" stroke="none"/>
    </g>
    <g text-rendering="geometricPrecision" stroke-miterlimit="1.45" shape-rendering="geometricPrecision" transform="matrix(1,0,0,1,-433,-287)" stroke-linecap="butt">
      <circle fill="none" r="135" clip-path="url(#clipPath2)" cx="1049" cy="437"/>
    </g>
  </g>
</svg>
